<svg width="342" height="390" viewBox="0 0 342 390" fill="none" xmlns="http://www.w3.org/2000/svg">
<g filter="url(#filter0_b_612_956)">
<rect width="342" height="110" rx="32" fill="black"/>
</g>
<path d="M100.205 32L100.191 31.0977L103.568 27.543C104.744 26.2988 105.305 25.6289 105.305 24.7129C105.305 23.7012 104.443 23.0312 103.336 23.0312C102.16 23.0312 101.408 23.7832 101.408 24.8906H100.246C100.232 23.1406 101.586 21.9648 103.377 21.9648C105.168 21.9648 106.453 23.168 106.453 24.7129C106.453 25.8203 105.934 26.6816 104.184 28.4863L101.914 30.8242V30.9062H106.631V32H100.205ZM111.662 32.1367C109.461 32.1367 108.203 30.291 108.203 27.0508C108.203 23.8379 109.488 21.9648 111.662 21.9648C113.836 21.9648 115.121 23.8379 115.121 27.0508C115.121 30.291 113.85 32.1367 111.662 32.1367ZM111.662 31.043C113.084 31.043 113.918 29.6074 113.918 27.0508C113.918 24.4941 113.084 23.0312 111.662 23.0312C110.24 23.0312 109.393 24.4941 109.393 27.0508C109.393 29.6074 110.227 31.043 111.662 31.043ZM116.762 32L116.748 31.0977L120.125 27.543C121.301 26.2988 121.861 25.6289 121.861 24.7129C121.861 23.7012 121 23.0312 119.893 23.0312C118.717 23.0312 117.965 23.7832 117.965 24.8906H116.803C116.789 23.1406 118.143 21.9648 119.934 21.9648C121.725 21.9648 123.01 23.168 123.01 24.7129C123.01 25.8203 122.49 26.6816 120.74 28.4863L118.471 30.8242V30.9062H123.188V32H116.762ZM124.514 29.9766V28.9648L128.971 22.1016H130.488V28.8965H131.869V29.9766H130.488V32H129.312V29.9766H124.514ZM125.84 28.8965H129.312V23.6602H129.189L125.84 28.8145V28.8965ZM143.135 20.9668V29.9629H142.055V25.752H138.555V24.8906H142.055V23.4277H138.555V22.5664H142.055V20.9668H143.135ZM143.463 31.9453V32.8477H135.301V29.1973H136.381V31.9453H143.463ZM134.863 21.8418V27.2422C136.538 27.2354 138.151 27.1465 140.004 26.8047L140.113 27.6934C138.131 28.0625 136.477 28.1445 134.699 28.1582H133.783V21.8418H134.863ZM152.35 32.1367C150.148 32.1367 148.891 30.291 148.891 27.0508C148.891 23.8379 150.176 21.9648 152.35 21.9648C154.523 21.9648 155.809 23.8379 155.809 27.0508C155.809 30.291 154.537 32.1367 152.35 32.1367ZM152.35 31.043C153.771 31.043 154.605 29.6074 154.605 27.0508C154.605 24.4941 153.771 23.0312 152.35 23.0312C150.928 23.0312 150.08 24.4941 150.08 27.0508C150.08 29.6074 150.914 31.043 152.35 31.043ZM167.033 20.9668V28.1309H165.953V27.4609H163.492V26.75H165.953V20.9668H167.033ZM156.971 25.5469C159.322 25.5605 162.33 25.5332 164.955 25.2461L165.023 25.9434C163.834 26.1143 162.597 26.2168 161.387 26.2715V28.1719H160.334V26.3125C159.186 26.3535 158.085 26.3604 157.094 26.3535L156.971 25.5469ZM167.033 28.5684V31.084H159.938V32.1777H167.43V32.9707H158.885V30.332H165.967V29.3477H158.83V28.5684H167.033ZM160.936 21.1992C162.74 21.1992 163.943 21.9102 163.957 23.0312C163.943 24.166 162.74 24.8496 160.936 24.8496C159.104 24.8496 157.914 24.166 157.914 23.0312C157.914 21.9102 159.104 21.1992 160.936 21.1992ZM160.936 21.9512C159.705 21.9512 158.912 22.375 158.926 23.0312C158.912 23.6738 159.705 24.1113 160.936 24.1113C162.152 24.1113 162.945 23.6738 162.945 23.0312C162.945 22.375 162.152 21.9512 160.936 21.9512ZM176.303 32.1367C174.102 32.1367 172.844 30.291 172.844 27.0508C172.844 23.8379 174.129 21.9648 176.303 21.9648C178.477 21.9648 179.762 23.8379 179.762 27.0508C179.762 30.291 178.49 32.1367 176.303 32.1367ZM176.303 31.043C177.725 31.043 178.559 29.6074 178.559 27.0508C178.559 24.4941 177.725 23.0312 176.303 23.0312C174.881 23.0312 174.033 24.4941 174.033 27.0508C174.033 29.6074 174.867 31.043 176.303 31.043ZM184.643 32.1367C182.441 32.1367 181.184 30.291 181.184 27.0508C181.184 23.8379 182.469 21.9648 184.643 21.9648C186.816 21.9648 188.102 23.8379 188.102 27.0508C188.102 30.291 186.83 32.1367 184.643 32.1367ZM184.643 31.043C186.064 31.043 186.898 29.6074 186.898 27.0508C186.898 24.4941 186.064 23.0312 184.643 23.0312C183.221 23.0312 182.373 24.4941 182.373 27.0508C182.373 29.6074 183.207 31.043 184.643 31.043ZM192.75 21.4043C194.568 21.418 195.895 22.5117 195.895 24.0977C195.895 25.6836 194.568 26.7773 192.75 26.7773C190.904 26.7773 189.592 25.6836 189.592 24.0977C189.592 22.5117 190.904 21.418 192.75 21.4043ZM192.75 22.3066C191.533 22.3066 190.631 23.0449 190.645 24.0977C190.631 25.1641 191.533 25.9023 192.75 25.9023C193.953 25.9023 194.855 25.1641 194.855 24.0977C194.855 23.0449 193.953 22.3066 192.75 22.3066ZM199.34 20.9531V27.2012H198.273V20.9531H199.34ZM199.34 27.7891V30.7148H192.518V32.082H199.777V32.9434H191.465V29.9082H198.273V28.6504H191.438V27.7891H199.34ZM214.939 20.9668V28.1309H213.859V27.4609H211.398V26.75H213.859V20.9668H214.939ZM204.877 25.5469C207.229 25.5605 210.236 25.5332 212.861 25.2461L212.93 25.9434C211.74 26.1143 210.503 26.2168 209.293 26.2715V28.1719H208.24V26.3125C207.092 26.3535 205.991 26.3604 205 26.3535L204.877 25.5469ZM214.939 28.5684V31.084H207.844V32.1777H215.336V32.9707H206.791V30.332H213.873V29.3477H206.736V28.5684H214.939ZM208.842 21.1992C210.646 21.1992 211.85 21.9102 211.863 23.0312C211.85 24.166 210.646 24.8496 208.842 24.8496C207.01 24.8496 205.82 24.166 205.82 23.0312C205.82 21.9102 207.01 21.1992 208.842 21.1992ZM208.842 21.9512C207.611 21.9512 206.818 22.375 206.832 23.0312C206.818 23.6738 207.611 24.1113 208.842 24.1113C210.059 24.1113 210.852 23.6738 210.852 23.0312C210.852 22.375 210.059 21.9512 208.842 21.9512ZM228.146 30.6465V31.5488H217.018V30.6465H219.779V27.3652C218.74 26.8252 218.111 25.9502 218.111 24.8496C218.111 22.9629 219.957 21.7324 222.555 21.7188C225.152 21.7324 226.998 22.9629 226.998 24.8496C226.998 25.9297 226.39 26.7979 225.385 27.3379V30.6465H228.146ZM222.555 22.6074C220.559 22.5938 219.15 23.4961 219.15 24.8496C219.15 26.2031 220.559 27.1191 222.555 27.1191C224.537 27.1191 225.959 26.2031 225.959 24.8496C225.959 23.4961 224.537 22.5938 222.555 22.6074ZM220.832 30.6465H224.305V27.748C223.778 27.8916 223.19 27.9668 222.555 27.9668C221.933 27.9668 221.352 27.8984 220.832 27.7617V30.6465ZM232.562 21.4043C234.381 21.418 235.707 22.5117 235.707 24.0977C235.707 25.6836 234.381 26.7773 232.562 26.7773C230.717 26.7773 229.404 25.6836 229.404 24.0977C229.404 22.5117 230.717 21.418 232.562 21.4043ZM232.562 22.3066C231.346 22.3066 230.443 23.0449 230.457 24.0977C230.443 25.1641 231.346 25.9023 232.562 25.9023C233.766 25.9023 234.668 25.1641 234.668 24.0977C234.668 23.0449 233.766 22.3066 232.562 22.3066ZM239.152 20.9531V27.2012H238.086V20.9531H239.152ZM239.152 27.7891V30.7148H232.33V32.082H239.59V32.9434H231.277V29.9082H238.086V28.6504H231.25V27.7891H239.152Z" fill="white"/>
<rect x="8" y="46" width="326" height="56" rx="28" fill="url(#paint0_linear_612_956)"/>
<path d="M140.322 74.6562V75.8438H134.759V78.4219H133.291V75.8438H127.509V74.6562H140.322ZM138.9 79.8281V81.0312H129.103V77.2031H130.572V79.8281H138.9ZM130.666 67.7656V69.4688H137.15V67.7656H138.634V73.4219H129.197V67.7656H130.666ZM130.666 72.2344H137.15V70.5781H130.666V72.2344ZM145.891 69.5625C145.875 71.4219 147.156 73.1719 149.266 73.875L148.453 75.0625C146.906 74.5078 145.766 73.375 145.172 71.9531C144.555 73.5156 143.367 74.7422 141.734 75.3594L140.938 74.1562C143.125 73.3906 144.391 71.5469 144.406 69.4844V68.0469H145.891V69.5625ZM152.625 76.3594V81.3281H151.141V77.5312H143.141V76.3594H152.625ZM152.625 67.3281V75.625H151.141V71.375H148.188V70.1562H151.141V67.3281H152.625ZM169.872 67.3281V81.3281H168.45V74.1562H166.653V80.6094H165.263V67.6094H166.653V72.9375H168.45V67.3281H169.872ZM160.028 68.9844V76.4531C161.325 76.4453 162.739 76.3438 164.325 76.0312L164.481 77.3281C162.559 77.6719 160.95 77.7656 159.45 77.7656H158.544V68.9844H160.028ZM184.081 74.1562V75.3594H171.316V74.1562H174.378V72.2656C173.3 71.8281 172.691 71.125 172.691 70.2031C172.691 68.5469 174.613 67.5781 177.691 67.5781C180.753 67.5781 182.691 68.5469 182.691 70.2031C182.691 71.125 182.073 71.8359 180.988 72.2656V74.1562H184.081ZM177.691 76.3125C180.706 76.3125 182.519 77.2031 182.519 78.7969C182.519 80.4219 180.706 81.2969 177.691 81.2969C174.644 81.2969 172.831 80.4219 172.831 78.7969C172.831 77.2031 174.644 76.3125 177.691 76.3125ZM177.691 77.4531C175.55 77.4531 174.331 77.9375 174.331 78.7969C174.331 79.6719 175.55 80.1719 177.691 80.1562C179.8 80.1719 181.034 79.6719 181.034 78.7969C181.034 77.9375 179.8 77.4531 177.691 77.4531ZM177.691 68.7188C175.519 68.7188 174.206 69.2656 174.222 70.2031C174.206 71.1406 175.519 71.6719 177.691 71.6719C179.863 71.6719 181.159 71.1406 181.159 70.2031C181.159 69.2656 179.863 68.7188 177.691 68.7188ZM175.878 74.1562H179.519V72.6562C178.972 72.75 178.355 72.7969 177.691 72.7969C177.034 72.7969 176.425 72.75 175.878 72.6719V74.1562ZM201.062 78.3594V79.5938H188.25V78.3594H193.891V75.4844H189.719V68.2812H191.203V70.6875H198.078V68.2812H199.547V75.4844H195.359V78.3594H201.062ZM191.203 74.2812H198.078V71.8906H191.203V74.2812ZM213.319 67.3281V81.3281H211.819V67.3281H213.319ZM209.147 68.8281C209.147 72.9219 207.397 76.4844 202.6 78.7812L201.819 77.5781C205.545 75.8047 207.358 73.2812 207.647 70.0156H202.491V68.8281H209.147Z" fill="white"/>
<rect y="130" width="342" height="258" rx="32" fill="#EEEEEE"/>
<path d="M171 142C199.85 142 227.683 152.659 249.153 171.931C270.623 191.202 284.216 217.726 287.32 246.409C290.425 275.092 282.823 303.91 265.974 327.329C249.125 350.748 224.218 367.116 196.036 373.29C167.854 379.463 138.385 375.007 113.288 360.776C88.1921 346.545 69.2385 323.544 60.0681 296.19C50.8976 268.836 52.1569 239.058 63.6042 212.576C75.0515 186.094 95.8795 164.776 122.088 152.715L171 259L171 142Z" fill="#00CA34"/>
<circle cx="171" cy="259" r="84.0667" fill="white"/>
<path d="M154.111 243.726C161.322 243.777 168.432 248.042 168.482 261.5C168.482 274.195 162.744 281.507 153.705 281.507C146.596 281.507 141.721 277.089 140.908 270.996H147.459C148.119 273.89 150.354 275.769 153.705 275.769C159.037 275.769 162.033 271.046 162.084 263.175H161.678C159.799 266.375 156.295 268.253 152.232 268.253C145.682 268.253 140.604 263.277 140.553 256.32C140.553 249.109 145.936 243.675 154.111 243.726ZM154.162 249.058C150.049 249.058 146.951 252.257 147.002 256.167C147.002 260.128 149.947 263.226 154.061 263.226C158.123 263.226 161.322 259.925 161.271 256.117C161.271 252.359 158.275 249.058 154.162 249.058ZM172.807 274.144V268.863L188.701 244.234H196.928V268.71H201.752V274.144H196.928V281H190.631V274.144H172.807ZM179.561 268.71H190.732V251.75H190.326L179.561 268.457V268.71Z" fill="#00CA34"/>
<defs>
<filter id="filter0_b_612_956" x="-20" y="-20" width="382" height="150" filterUnits="userSpaceOnUse" color-interpolation-filters="sRGB">
<feFlood flood-opacity="0" result="BackgroundImageFix"/>
<feGaussianBlur in="BackgroundImageFix" stdDeviation="10"/>
<feComposite in2="SourceAlpha" operator="in" result="effect1_backgroundBlur_612_956"/>
<feBlend mode="normal" in="SourceGraphic" in2="effect1_backgroundBlur_612_956" result="shape"/>
</filter>
<linearGradient id="paint0_linear_612_956" x1="8" y1="102" x2="332.824" y2="39.8546" gradientUnits="userSpaceOnUse">
<stop stop-color="#26D4AB"/>
<stop offset="1" stop-color="#7497FF"/>
</linearGradient>
</defs>
</svg>
