<svg width="342" height="390" viewBox="0 0 342 390" fill="none" xmlns="http://www.w3.org/2000/svg">
<rect width="342" height="388" rx="32" fill="#EEEEEE"/>
<rect x="102.5" y="16.5" width="231" height="75" rx="15.5" fill="white" stroke="#DDDDDD"/>
<rect x="102.5" y="184.5" width="231" height="75" rx="15.5" fill="white" stroke="#DDDDDD"/>
<path d="M119.094 38.1016H120.57L123.906 46.25H124.029L127.365 38.1016H128.842V48H127.68V40.5215H127.584L124.508 48H123.414L120.338 40.5215H120.256V48H119.094V38.1016ZM130.523 45.8945C130.523 44.1855 132.027 43.8027 133.312 43.707C133.784 43.6729 134.987 43.6113 135.322 43.5977V42.9961C135.322 42.0527 134.762 41.5059 133.641 41.5059C132.697 41.5059 132.137 41.9434 131.973 42.5039H130.742C130.893 41.3145 132.055 40.4805 133.695 40.4805C134.666 40.4805 136.484 40.7676 136.484 43.1055V48H135.322V46.9883H135.268C135.021 47.4941 134.338 48.1777 133.053 48.1777C131.645 48.1777 130.523 47.3438 130.523 45.8945ZM131.699 45.9492C131.699 46.7285 132.355 47.125 133.258 47.125C134.584 47.125 135.322 46.2363 135.322 45.3066V44.5547L133.449 44.6914C132.383 44.7598 131.699 45.1426 131.699 45.9492ZM143.061 44.9512V40.5762H144.223V48H143.061V46.7422H142.979C142.623 47.4941 141.898 48.0957 140.777 48.0957C139.369 48.0957 138.371 47.1797 138.371 45.293V40.5762H139.547V45.2109C139.547 46.2773 140.217 46.9609 141.16 46.9609C141.994 46.9609 143.061 46.332 143.061 44.9512ZM146.109 48V40.5762H147.244V41.7109H147.326C147.6 40.959 148.365 40.4531 149.24 40.4531C149.418 40.4531 149.719 40.4668 149.855 40.4805V41.6699C149.773 41.6426 149.445 41.5879 149.145 41.5879C148.078 41.5879 147.285 42.3262 147.285 43.3242V48H146.109ZM151.004 48V40.5762H152.18V48H151.004ZM151.592 39.3457C151.141 39.3457 150.771 39.0039 150.771 38.5664C150.771 38.1289 151.141 37.7871 151.592 37.7871C152.043 37.7871 152.426 38.1289 152.426 38.5664C152.426 39.0039 152.043 39.3457 151.592 39.3457ZM158.182 42.5039C158.018 41.8887 157.553 41.4785 156.678 41.4785C155.762 41.4785 155.105 41.9707 155.105 42.5996C155.105 43.0918 155.502 43.4336 156.377 43.6387L157.484 43.9121C158.811 44.2266 159.467 44.8828 159.467 45.9219C159.467 47.207 158.414 48.1504 156.555 48.1504C154.887 48.1504 153.889 47.4121 153.697 46.0586H154.928C155.064 46.7832 155.598 47.125 156.527 47.125C157.58 47.125 158.25 46.6875 158.25 45.9902C158.25 45.4707 157.881 45.1152 157.033 44.9238L155.912 44.6641C154.613 44.3633 153.93 43.6523 153.93 42.668C153.93 41.3965 155.037 40.4805 156.678 40.4805C158.209 40.4805 159.18 41.3008 159.33 42.5039H158.182ZM168.641 42.5039C168.477 41.8887 168.012 41.4785 167.137 41.4785C166.221 41.4785 165.564 41.9707 165.564 42.5996C165.564 43.0918 165.961 43.4336 166.836 43.6387L167.943 43.9121C169.27 44.2266 169.926 44.8828 169.926 45.9219C169.926 47.207 168.873 48.1504 167.014 48.1504C165.346 48.1504 164.348 47.4121 164.156 46.0586H165.387C165.523 46.7832 166.057 47.125 166.986 47.125C168.039 47.125 168.709 46.6875 168.709 45.9902C168.709 45.4707 168.34 45.1152 167.492 44.9238L166.371 44.6641C165.072 44.3633 164.389 43.6523 164.389 42.668C164.389 41.3965 165.496 40.4805 167.137 40.4805C168.668 40.4805 169.639 41.3008 169.789 42.5039H168.641ZM174.492 48.1504C172.387 48.1504 171.102 46.5508 171.102 44.3223C171.102 42.0664 172.441 40.4805 174.465 40.4805C176.051 40.4805 177.227 41.4102 177.418 42.8184H176.242C176.078 42.1348 175.477 41.5195 174.492 41.5195C173.166 41.5195 172.277 42.6133 172.277 44.2812C172.277 46.0039 173.139 47.0977 174.492 47.0977C175.367 47.0977 176.037 46.6328 176.242 45.8125H177.418C177.227 47.1387 176.146 48.1504 174.492 48.1504ZM181.984 48.1504C179.838 48.1504 178.512 46.6328 178.512 44.3496C178.512 42.0664 179.852 40.4805 181.875 40.4805C183.434 40.4805 185.074 41.4375 185.074 44.1855V44.6777H179.688C179.742 46.25 180.658 47.1113 181.984 47.1113C182.873 47.1113 183.434 46.7285 183.707 46.2637H184.965C184.609 47.3848 183.516 48.1504 181.984 48.1504ZM179.701 43.6797H183.885C183.885 42.4355 183.092 41.5195 181.875 41.5195C180.59 41.5195 179.77 42.5312 179.701 43.6797ZM187.781 38.1016V48H186.605V38.1016H187.781ZM192.771 48.1504C190.625 48.1504 189.299 46.6328 189.299 44.3496C189.299 42.0664 190.639 40.4805 192.662 40.4805C194.221 40.4805 195.861 41.4375 195.861 44.1855V44.6777H190.475C190.529 46.25 191.445 47.1113 192.771 47.1113C193.66 47.1113 194.221 46.7285 194.494 46.2637H195.752C195.396 47.3848 194.303 48.1504 192.771 48.1504ZM190.488 43.6797H194.672C194.672 42.4355 193.879 41.5195 192.662 41.5195C191.377 41.5195 190.557 42.5312 190.488 43.6797ZM197.393 48V40.5762H198.527V41.7109H198.609C198.883 40.959 199.648 40.4531 200.523 40.4531C200.701 40.4531 201.002 40.4668 201.139 40.4805V41.6699C201.057 41.6426 200.729 41.5879 200.428 41.5879C199.361 41.5879 198.568 42.3262 198.568 43.3242V48H197.393ZM202.287 48V40.5762H203.463V48H202.287ZM202.875 39.3457C202.424 39.3457 202.055 39.0039 202.055 38.5664C202.055 38.1289 202.424 37.7871 202.875 37.7871C203.326 37.7871 203.709 38.1289 203.709 38.5664C203.709 39.0039 203.326 39.3457 202.875 39.3457ZM209.465 42.5039C209.301 41.8887 208.836 41.4785 207.961 41.4785C207.045 41.4785 206.389 41.9707 206.389 42.5996C206.389 43.0918 206.785 43.4336 207.66 43.6387L208.768 43.9121C210.094 44.2266 210.75 44.8828 210.75 45.9219C210.75 47.207 209.697 48.1504 207.838 48.1504C206.17 48.1504 205.172 47.4121 204.98 46.0586H206.211C206.348 46.7832 206.881 47.125 207.811 47.125C208.863 47.125 209.533 46.6875 209.533 45.9902C209.533 45.4707 209.164 45.1152 208.316 44.9238L207.195 44.6641C205.896 44.3633 205.213 43.6523 205.213 42.668C205.213 41.3965 206.32 40.4805 207.961 40.4805C209.492 40.4805 210.463 41.3008 210.613 42.5039H209.465ZM217.326 50.7891V46.8652H217.244C216.984 47.2754 216.506 48.1504 215.084 48.1504C213.238 48.1504 211.926 46.6602 211.926 44.3086C211.926 41.957 213.238 40.4805 215.098 40.4805C216.533 40.4805 216.998 41.3555 217.244 41.752H217.367V40.5762H218.516V50.7891H217.326ZM215.248 47.0977C216.602 47.0977 217.367 45.9492 217.367 44.2812C217.367 42.6406 216.629 41.5332 215.248 41.5332C213.826 41.5332 213.115 42.7363 213.115 44.2812C213.115 45.8672 213.84 47.0977 215.248 47.0977ZM225.078 44.9512V40.5762H226.24V48H225.078V46.7422H224.996C224.641 47.4941 223.916 48.0957 222.795 48.0957C221.387 48.0957 220.389 47.1797 220.389 45.293V40.5762H221.564V45.2109C221.564 46.2773 222.234 46.9609 223.178 46.9609C224.012 46.9609 225.078 46.332 225.078 44.9512ZM231.244 48.1504C229.098 48.1504 227.771 46.6328 227.771 44.3496C227.771 42.0664 229.111 40.4805 231.135 40.4805C232.693 40.4805 234.334 41.4375 234.334 44.1855V44.6777H228.947C229.002 46.25 229.918 47.1113 231.244 47.1113C232.133 47.1113 232.693 46.7285 232.967 46.2637H234.225C233.869 47.3848 232.775 48.1504 231.244 48.1504ZM228.961 43.6797H233.145C233.145 42.4355 232.352 41.5195 231.135 41.5195C229.85 41.5195 229.029 42.5312 228.961 43.6797ZM240.555 38.1016V48H239.379V38.1016H240.555ZM245.463 48.1504C243.439 48.1504 242.072 46.6328 242.072 44.3223C242.072 42.0117 243.439 40.4805 245.463 40.4805C247.473 40.4805 248.826 42.0117 248.826 44.3223C248.826 46.6328 247.473 48.1504 245.463 48.1504ZM245.463 47.1113C246.953 47.1113 247.65 45.7988 247.65 44.3223C247.65 42.8457 246.953 41.5195 245.463 41.5195C243.945 41.5195 243.248 42.8457 243.248 44.3223C243.248 45.7988 243.945 47.1113 245.463 47.1113ZM250.371 48V40.5762H251.506V41.7109H251.588C251.861 40.959 252.627 40.4531 253.502 40.4531C253.68 40.4531 253.98 40.4668 254.117 40.4805V41.6699C254.035 41.6426 253.707 41.5879 253.406 41.5879C252.34 41.5879 251.547 42.3262 251.547 43.3242V48H250.371ZM258.137 48.1504C255.99 48.1504 254.664 46.6328 254.664 44.3496C254.664 42.0664 256.004 40.4805 258.027 40.4805C259.586 40.4805 261.227 41.4375 261.227 44.1855V44.6777H255.84C255.895 46.25 256.811 47.1113 258.137 47.1113C259.025 47.1113 259.586 46.7285 259.859 46.2637H261.117C260.762 47.3848 259.668 48.1504 258.137 48.1504ZM255.854 43.6797H260.037C260.037 42.4355 259.244 41.5195 258.027 41.5195C256.742 41.5195 255.922 42.5312 255.854 43.6797ZM262.758 48V40.5762H263.893V41.7383H263.988C264.303 40.9453 265.014 40.4805 265.984 40.4805C266.955 40.4805 267.611 40.9453 267.967 41.7383H268.049C268.432 40.9727 269.211 40.4805 270.277 40.4805C271.604 40.4805 272.547 41.2871 272.547 43.0371V48H271.371V43.0508C271.371 41.957 270.674 41.5332 269.867 41.5332C268.828 41.5332 268.24 42.2305 268.24 43.1738V48H267.051V42.9277C267.051 42.0938 266.449 41.5332 265.602 41.5332C264.713 41.5332 263.934 42.2852 263.934 43.3652V48H262.758ZM280.75 48.1504C278.904 48.1504 277.592 46.6602 277.592 44.3086C277.592 41.957 278.904 40.4805 280.764 40.4805C282.199 40.4805 282.664 41.3555 282.91 41.752H282.992V38.1016H284.182V48H283.033V46.8652H282.91C282.65 47.2754 282.172 48.1504 280.75 48.1504ZM280.914 47.0977C282.268 47.0977 283.033 45.9492 283.033 44.2812C283.033 42.6406 282.295 41.5332 280.914 41.5332C279.492 41.5332 278.781 42.7363 278.781 44.2812C278.781 45.8672 279.506 47.0977 280.914 47.0977ZM289.254 48.1504C287.23 48.1504 285.863 46.6328 285.863 44.3223C285.863 42.0117 287.23 40.4805 289.254 40.4805C291.264 40.4805 292.617 42.0117 292.617 44.3223C292.617 46.6328 291.264 48.1504 289.254 48.1504ZM289.254 47.1113C290.744 47.1113 291.441 45.7988 291.441 44.3223C291.441 42.8457 290.744 41.5195 289.254 41.5195C287.736 41.5195 287.039 42.8457 287.039 44.3223C287.039 45.7988 287.736 47.1113 289.254 47.1113ZM295.338 38.1016V48H294.162V38.1016H295.338ZM300.246 48.1504C298.223 48.1504 296.855 46.6328 296.855 44.3223C296.855 42.0117 298.223 40.4805 300.246 40.4805C302.256 40.4805 303.609 42.0117 303.609 44.3223C303.609 46.6328 302.256 48.1504 300.246 48.1504ZM300.246 47.1113C301.736 47.1113 302.434 45.7988 302.434 44.3223C302.434 42.8457 301.736 41.5195 300.246 41.5195C298.729 41.5195 298.031 42.8457 298.031 44.3223C298.031 45.7988 298.729 47.1113 300.246 47.1113ZM305.154 48V40.5762H306.289V41.7109H306.371C306.645 40.959 307.41 40.4531 308.285 40.4531C308.463 40.4531 308.764 40.4668 308.9 40.4805V41.6699C308.818 41.6426 308.49 41.5879 308.189 41.5879C307.123 41.5879 306.33 42.3262 306.33 43.3242V48H305.154ZM310.746 47.084L309.68 50.8027H308.668L309.42 47.084H310.746ZM119.094 70V60.1016H120.27V63.752H120.365C120.625 63.3555 121.062 62.4805 122.512 62.4805C124.371 62.4805 125.684 63.957 125.684 66.3086C125.684 68.6602 124.371 70.1504 122.525 70.1504C121.104 70.1504 120.625 69.2754 120.365 68.8652H120.229V70H119.094ZM120.242 66.2812C120.242 67.9492 120.994 69.0977 122.348 69.0977C123.756 69.0977 124.494 67.8672 124.494 66.2812C124.494 64.7363 123.783 63.5332 122.348 63.5332C120.98 63.5332 120.242 64.6406 120.242 66.2812ZM128.391 60.1016V70H127.215V60.1016H128.391ZM129.908 67.8945C129.908 66.1855 131.412 65.8027 132.697 65.707C133.169 65.6729 134.372 65.6113 134.707 65.5977V64.9961C134.707 64.0527 134.146 63.5059 133.025 63.5059C132.082 63.5059 131.521 63.9434 131.357 64.5039H130.127C130.277 63.3145 131.439 62.4805 133.08 62.4805C134.051 62.4805 135.869 62.7676 135.869 65.1055V70H134.707V68.9883H134.652C134.406 69.4941 133.723 70.1777 132.438 70.1777C131.029 70.1777 129.908 69.3438 129.908 67.8945ZM131.084 67.9492C131.084 68.7285 131.74 69.125 132.643 69.125C133.969 69.125 134.707 68.2363 134.707 67.3066V66.5547L132.834 66.6914C131.768 66.7598 131.084 67.1426 131.084 67.9492ZM138.932 65.543V70H137.756V62.5762H138.891V63.7383H138.986C139.342 62.9863 140.025 62.4805 141.16 62.4805C142.664 62.4805 143.662 63.3965 143.662 65.2832V70H142.486V65.3652C142.486 64.2168 141.857 63.5332 140.805 63.5332C139.725 63.5332 138.932 64.2578 138.932 65.543ZM148.352 70.1504C146.506 70.1504 145.193 68.6602 145.193 66.3086C145.193 63.957 146.506 62.4805 148.365 62.4805C149.801 62.4805 150.266 63.3555 150.512 63.752H150.594V60.1016H151.783V70H150.635V68.8652H150.512C150.252 69.2754 149.773 70.1504 148.352 70.1504ZM148.516 69.0977C149.869 69.0977 150.635 67.9492 150.635 66.2812C150.635 64.6406 149.896 63.5332 148.516 63.5332C147.094 63.5332 146.383 64.7363 146.383 66.2812C146.383 67.8672 147.107 69.0977 148.516 69.0977ZM153.82 70V62.5762H154.996V70H153.82ZM154.408 61.3457C153.957 61.3457 153.588 61.0039 153.588 60.5664C153.588 60.1289 153.957 59.7871 154.408 59.7871C154.859 59.7871 155.242 60.1289 155.242 60.5664C155.242 61.0039 154.859 61.3457 154.408 61.3457ZM160.109 62.5762V63.5605H158.551V67.8672C158.551 68.8242 159.016 68.9746 159.521 68.9746C159.74 68.9746 160.041 68.9609 160.219 68.9473V70.041C160.041 70.0684 159.74 70.0957 159.398 70.0957C158.414 70.0957 157.361 69.4805 157.361 68.168V63.5605H156.24V62.5762H157.361V60.7988H158.551V62.5762H160.109ZM168.176 70.1504C166.07 70.1504 164.785 68.5508 164.785 66.3223C164.785 64.0664 166.125 62.4805 168.148 62.4805C169.734 62.4805 170.91 63.4102 171.102 64.8184H169.926C169.762 64.1348 169.16 63.5195 168.176 63.5195C166.85 63.5195 165.961 64.6133 165.961 66.2812C165.961 68.0039 166.822 69.0977 168.176 69.0977C169.051 69.0977 169.721 68.6328 169.926 67.8125H171.102C170.91 69.1387 169.83 70.1504 168.176 70.1504ZM175.586 70.1504C173.562 70.1504 172.195 68.6328 172.195 66.3223C172.195 64.0117 173.562 62.4805 175.586 62.4805C177.596 62.4805 178.949 64.0117 178.949 66.3223C178.949 68.6328 177.596 70.1504 175.586 70.1504ZM175.586 69.1113C177.076 69.1113 177.773 67.7988 177.773 66.3223C177.773 64.8457 177.076 63.5195 175.586 63.5195C174.068 63.5195 173.371 64.8457 173.371 66.3223C173.371 67.7988 174.068 69.1113 175.586 69.1113ZM181.67 65.543V70H180.494V62.5762H181.629V63.7383H181.725C182.08 62.9863 182.764 62.4805 183.898 62.4805C185.402 62.4805 186.4 63.3965 186.4 65.2832V70H185.225V65.3652C185.225 64.2168 184.596 63.5332 183.543 63.5332C182.463 63.5332 181.67 64.2578 181.67 65.543ZM191.295 72.9395C189.504 72.9395 188.287 72.1602 188.15 70.7793H189.381C189.545 71.5312 190.242 71.9141 191.295 71.9141C192.566 71.9141 193.346 71.3672 193.346 70.1367V68.6328H193.25C193.004 69.043 192.525 69.8906 191.09 69.8906C189.285 69.8906 187.932 68.5234 187.932 66.1855C187.932 63.9023 189.244 62.4805 191.104 62.4805C192.539 62.4805 193.004 63.3555 193.277 63.752H193.373V62.5762H194.521V70.2051C194.521 72.1191 193.1 72.9395 191.295 72.9395ZM191.254 68.8379C192.607 68.8379 193.373 67.8672 193.373 66.2266C193.373 64.6406 192.635 63.5332 191.254 63.5332C189.832 63.5332 189.121 64.7363 189.121 66.2266C189.121 67.7715 189.846 68.8379 191.254 68.8379ZM201.084 66.9512V62.5762H202.246V70H201.084V68.7422H201.002C200.646 69.4941 199.922 70.0957 198.801 70.0957C197.393 70.0957 196.395 69.1797 196.395 67.293V62.5762H197.57V67.2109C197.57 68.2773 198.24 68.9609 199.184 68.9609C200.018 68.9609 201.084 68.332 201.084 66.9512ZM207.25 70.1504C205.104 70.1504 203.777 68.6328 203.777 66.3496C203.777 64.0664 205.117 62.4805 207.141 62.4805C208.699 62.4805 210.34 63.4375 210.34 66.1855V66.6777H204.953C205.008 68.25 205.924 69.1113 207.25 69.1113C208.139 69.1113 208.699 68.7285 208.973 68.2637H210.23C209.875 69.3848 208.781 70.1504 207.25 70.1504ZM204.967 65.6797H209.15C209.15 64.4355 208.357 63.5195 207.141 63.5195C205.855 63.5195 205.035 64.5312 204.967 65.6797Z" fill="#767676"/>
<path d="M119.094 206.102H120.57L123.906 214.25H124.029L127.365 206.102H128.842V216H127.68V208.521H127.584L124.508 216H123.414L120.338 208.521H120.256V216H119.094V206.102ZM130.523 213.895C130.523 212.186 132.027 211.803 133.312 211.707C133.784 211.673 134.987 211.611 135.322 211.598V210.996C135.322 210.053 134.762 209.506 133.641 209.506C132.697 209.506 132.137 209.943 131.973 210.504H130.742C130.893 209.314 132.055 208.48 133.695 208.48C134.666 208.48 136.484 208.768 136.484 211.105V216H135.322V214.988H135.268C135.021 215.494 134.338 216.178 133.053 216.178C131.645 216.178 130.523 215.344 130.523 213.895ZM131.699 213.949C131.699 214.729 132.355 215.125 133.258 215.125C134.584 215.125 135.322 214.236 135.322 213.307V212.555L133.449 212.691C132.383 212.76 131.699 213.143 131.699 213.949ZM143.061 212.951V208.576H144.223V216H143.061V214.742H142.979C142.623 215.494 141.898 216.096 140.777 216.096C139.369 216.096 138.371 215.18 138.371 213.293V208.576H139.547V213.211C139.547 214.277 140.217 214.961 141.16 214.961C141.994 214.961 143.061 214.332 143.061 212.951ZM146.109 216V208.576H147.244V209.711H147.326C147.6 208.959 148.365 208.453 149.24 208.453C149.418 208.453 149.719 208.467 149.855 208.48V209.67C149.773 209.643 149.445 209.588 149.145 209.588C148.078 209.588 147.285 210.326 147.285 211.324V216H146.109ZM151.004 216V208.576H152.18V216H151.004ZM151.592 207.346C151.141 207.346 150.771 207.004 150.771 206.566C150.771 206.129 151.141 205.787 151.592 205.787C152.043 205.787 152.426 206.129 152.426 206.566C152.426 207.004 152.043 207.346 151.592 207.346ZM158.182 210.504C158.018 209.889 157.553 209.479 156.678 209.479C155.762 209.479 155.105 209.971 155.105 210.6C155.105 211.092 155.502 211.434 156.377 211.639L157.484 211.912C158.811 212.227 159.467 212.883 159.467 213.922C159.467 215.207 158.414 216.15 156.555 216.15C154.887 216.15 153.889 215.412 153.697 214.059H154.928C155.064 214.783 155.598 215.125 156.527 215.125C157.58 215.125 158.25 214.688 158.25 213.99C158.25 213.471 157.881 213.115 157.033 212.924L155.912 212.664C154.613 212.363 153.93 211.652 153.93 210.668C153.93 209.396 155.037 208.48 156.678 208.48C158.209 208.48 159.18 209.301 159.33 210.504H158.182ZM168.641 210.504C168.477 209.889 168.012 209.479 167.137 209.479C166.221 209.479 165.564 209.971 165.564 210.6C165.564 211.092 165.961 211.434 166.836 211.639L167.943 211.912C169.27 212.227 169.926 212.883 169.926 213.922C169.926 215.207 168.873 216.15 167.014 216.15C165.346 216.15 164.348 215.412 164.156 214.059H165.387C165.523 214.783 166.057 215.125 166.986 215.125C168.039 215.125 168.709 214.688 168.709 213.99C168.709 213.471 168.34 213.115 167.492 212.924L166.371 212.664C165.072 212.363 164.389 211.652 164.389 210.668C164.389 209.396 165.496 208.48 167.137 208.48C168.668 208.48 169.639 209.301 169.789 210.504H168.641ZM174.492 216.15C172.387 216.15 171.102 214.551 171.102 212.322C171.102 210.066 172.441 208.48 174.465 208.48C176.051 208.48 177.227 209.41 177.418 210.818H176.242C176.078 210.135 175.477 209.52 174.492 209.52C173.166 209.52 172.277 210.613 172.277 212.281C172.277 214.004 173.139 215.098 174.492 215.098C175.367 215.098 176.037 214.633 176.242 213.812H177.418C177.227 215.139 176.146 216.15 174.492 216.15ZM181.984 216.15C179.838 216.15 178.512 214.633 178.512 212.35C178.512 210.066 179.852 208.48 181.875 208.48C183.434 208.48 185.074 209.438 185.074 212.186V212.678H179.688C179.742 214.25 180.658 215.111 181.984 215.111C182.873 215.111 183.434 214.729 183.707 214.264H184.965C184.609 215.385 183.516 216.15 181.984 216.15ZM179.701 211.68H183.885C183.885 210.436 183.092 209.52 181.875 209.52C180.59 209.52 179.77 210.531 179.701 211.68ZM187.781 206.102V216H186.605V206.102H187.781ZM192.771 216.15C190.625 216.15 189.299 214.633 189.299 212.35C189.299 210.066 190.639 208.48 192.662 208.48C194.221 208.48 195.861 209.438 195.861 212.186V212.678H190.475C190.529 214.25 191.445 215.111 192.771 215.111C193.66 215.111 194.221 214.729 194.494 214.264H195.752C195.396 215.385 194.303 216.15 192.771 216.15ZM190.488 211.68H194.672C194.672 210.436 193.879 209.52 192.662 209.52C191.377 209.52 190.557 210.531 190.488 211.68ZM197.393 216V208.576H198.527V209.711H198.609C198.883 208.959 199.648 208.453 200.523 208.453C200.701 208.453 201.002 208.467 201.139 208.48V209.67C201.057 209.643 200.729 209.588 200.428 209.588C199.361 209.588 198.568 210.326 198.568 211.324V216H197.393ZM202.287 216V208.576H203.463V216H202.287ZM202.875 207.346C202.424 207.346 202.055 207.004 202.055 206.566C202.055 206.129 202.424 205.787 202.875 205.787C203.326 205.787 203.709 206.129 203.709 206.566C203.709 207.004 203.326 207.346 202.875 207.346ZM209.465 210.504C209.301 209.889 208.836 209.479 207.961 209.479C207.045 209.479 206.389 209.971 206.389 210.6C206.389 211.092 206.785 211.434 207.66 211.639L208.768 211.912C210.094 212.227 210.75 212.883 210.75 213.922C210.75 215.207 209.697 216.15 207.838 216.15C206.17 216.15 205.172 215.412 204.98 214.059H206.211C206.348 214.783 206.881 215.125 207.811 215.125C208.863 215.125 209.533 214.688 209.533 213.99C209.533 213.471 209.164 213.115 208.316 212.924L207.195 212.664C205.896 212.363 205.213 211.652 205.213 210.668C205.213 209.396 206.32 208.48 207.961 208.48C209.492 208.48 210.463 209.301 210.613 210.504H209.465ZM217.326 218.789V214.865H217.244C216.984 215.275 216.506 216.15 215.084 216.15C213.238 216.15 211.926 214.66 211.926 212.309C211.926 209.957 213.238 208.48 215.098 208.48C216.533 208.48 216.998 209.355 217.244 209.752H217.367V208.576H218.516V218.789H217.326ZM215.248 215.098C216.602 215.098 217.367 213.949 217.367 212.281C217.367 210.641 216.629 209.533 215.248 209.533C213.826 209.533 213.115 210.736 213.115 212.281C213.115 213.867 213.84 215.098 215.248 215.098ZM225.078 212.951V208.576H226.24V216H225.078V214.742H224.996C224.641 215.494 223.916 216.096 222.795 216.096C221.387 216.096 220.389 215.18 220.389 213.293V208.576H221.564V213.211C221.564 214.277 222.234 214.961 223.178 214.961C224.012 214.961 225.078 214.332 225.078 212.951ZM231.244 216.15C229.098 216.15 227.771 214.633 227.771 212.35C227.771 210.066 229.111 208.48 231.135 208.48C232.693 208.48 234.334 209.438 234.334 212.186V212.678H228.947C229.002 214.25 229.918 215.111 231.244 215.111C232.133 215.111 232.693 214.729 232.967 214.264H234.225C233.869 215.385 232.775 216.15 231.244 216.15ZM228.961 211.68H233.145C233.145 210.436 232.352 209.52 231.135 209.52C229.85 209.52 229.029 210.531 228.961 211.68ZM240.555 206.102V216H239.379V206.102H240.555ZM245.463 216.15C243.439 216.15 242.072 214.633 242.072 212.322C242.072 210.012 243.439 208.48 245.463 208.48C247.473 208.48 248.826 210.012 248.826 212.322C248.826 214.633 247.473 216.15 245.463 216.15ZM245.463 215.111C246.953 215.111 247.65 213.799 247.65 212.322C247.65 210.846 246.953 209.52 245.463 209.52C243.945 209.52 243.248 210.846 243.248 212.322C243.248 213.799 243.945 215.111 245.463 215.111ZM250.371 216V208.576H251.506V209.711H251.588C251.861 208.959 252.627 208.453 253.502 208.453C253.68 208.453 253.98 208.467 254.117 208.48V209.67C254.035 209.643 253.707 209.588 253.406 209.588C252.34 209.588 251.547 210.326 251.547 211.324V216H250.371ZM258.137 216.15C255.99 216.15 254.664 214.633 254.664 212.35C254.664 210.066 256.004 208.48 258.027 208.48C259.586 208.48 261.227 209.438 261.227 212.186V212.678H255.84C255.895 214.25 256.811 215.111 258.137 215.111C259.025 215.111 259.586 214.729 259.859 214.264H261.117C260.762 215.385 259.668 216.15 258.137 216.15ZM255.854 211.68H260.037C260.037 210.436 259.244 209.52 258.027 209.52C256.742 209.52 255.922 210.531 255.854 211.68ZM262.758 216V208.576H263.893V209.738H263.988C264.303 208.945 265.014 208.48 265.984 208.48C266.955 208.48 267.611 208.945 267.967 209.738H268.049C268.432 208.973 269.211 208.48 270.277 208.48C271.604 208.48 272.547 209.287 272.547 211.037V216H271.371V211.051C271.371 209.957 270.674 209.533 269.867 209.533C268.828 209.533 268.24 210.23 268.24 211.174V216H267.051V210.928C267.051 210.094 266.449 209.533 265.602 209.533C264.713 209.533 263.934 210.285 263.934 211.365V216H262.758ZM280.75 216.15C278.904 216.15 277.592 214.66 277.592 212.309C277.592 209.957 278.904 208.48 280.764 208.48C282.199 208.48 282.664 209.355 282.91 209.752H282.992V206.102H284.182V216H283.033V214.865H282.91C282.65 215.275 282.172 216.15 280.75 216.15ZM280.914 215.098C282.268 215.098 283.033 213.949 283.033 212.281C283.033 210.641 282.295 209.533 280.914 209.533C279.492 209.533 278.781 210.736 278.781 212.281C278.781 213.867 279.506 215.098 280.914 215.098ZM289.254 216.15C287.23 216.15 285.863 214.633 285.863 212.322C285.863 210.012 287.23 208.48 289.254 208.48C291.264 208.48 292.617 210.012 292.617 212.322C292.617 214.633 291.264 216.15 289.254 216.15ZM289.254 215.111C290.744 215.111 291.441 213.799 291.441 212.322C291.441 210.846 290.744 209.52 289.254 209.52C287.736 209.52 287.039 210.846 287.039 212.322C287.039 213.799 287.736 215.111 289.254 215.111ZM295.338 206.102V216H294.162V206.102H295.338ZM300.246 216.15C298.223 216.15 296.855 214.633 296.855 212.322C296.855 210.012 298.223 208.48 300.246 208.48C302.256 208.48 303.609 210.012 303.609 212.322C303.609 214.633 302.256 216.15 300.246 216.15ZM300.246 215.111C301.736 215.111 302.434 213.799 302.434 212.322C302.434 210.846 301.736 209.52 300.246 209.52C298.729 209.52 298.031 210.846 298.031 212.322C298.031 213.799 298.729 215.111 300.246 215.111ZM305.154 216V208.576H306.289V209.711H306.371C306.645 208.959 307.41 208.453 308.285 208.453C308.463 208.453 308.764 208.467 308.9 208.48V209.67C308.818 209.643 308.49 209.588 308.189 209.588C307.123 209.588 306.33 210.326 306.33 211.324V216H305.154ZM310.746 215.084L309.68 218.803H308.668L309.42 215.084H310.746ZM119.094 238V228.102H120.27V231.752H120.365C120.625 231.355 121.062 230.48 122.512 230.48C124.371 230.48 125.684 231.957 125.684 234.309C125.684 236.66 124.371 238.15 122.525 238.15C121.104 238.15 120.625 237.275 120.365 236.865H120.229V238H119.094ZM120.242 234.281C120.242 235.949 120.994 237.098 122.348 237.098C123.756 237.098 124.494 235.867 124.494 234.281C124.494 232.736 123.783 231.533 122.348 231.533C120.98 231.533 120.242 232.641 120.242 234.281ZM128.391 228.102V238H127.215V228.102H128.391ZM129.908 235.895C129.908 234.186 131.412 233.803 132.697 233.707C133.169 233.673 134.372 233.611 134.707 233.598V232.996C134.707 232.053 134.146 231.506 133.025 231.506C132.082 231.506 131.521 231.943 131.357 232.504H130.127C130.277 231.314 131.439 230.48 133.08 230.48C134.051 230.48 135.869 230.768 135.869 233.105V238H134.707V236.988H134.652C134.406 237.494 133.723 238.178 132.438 238.178C131.029 238.178 129.908 237.344 129.908 235.895ZM131.084 235.949C131.084 236.729 131.74 237.125 132.643 237.125C133.969 237.125 134.707 236.236 134.707 235.307V234.555L132.834 234.691C131.768 234.76 131.084 235.143 131.084 235.949ZM138.932 233.543V238H137.756V230.576H138.891V231.738H138.986C139.342 230.986 140.025 230.48 141.16 230.48C142.664 230.48 143.662 231.396 143.662 233.283V238H142.486V233.365C142.486 232.217 141.857 231.533 140.805 231.533C139.725 231.533 138.932 232.258 138.932 233.543ZM148.352 238.15C146.506 238.15 145.193 236.66 145.193 234.309C145.193 231.957 146.506 230.48 148.365 230.48C149.801 230.48 150.266 231.355 150.512 231.752H150.594V228.102H151.783V238H150.635V236.865H150.512C150.252 237.275 149.773 238.15 148.352 238.15ZM148.516 237.098C149.869 237.098 150.635 235.949 150.635 234.281C150.635 232.641 149.896 231.533 148.516 231.533C147.094 231.533 146.383 232.736 146.383 234.281C146.383 235.867 147.107 237.098 148.516 237.098ZM153.82 238V230.576H154.996V238H153.82ZM154.408 229.346C153.957 229.346 153.588 229.004 153.588 228.566C153.588 228.129 153.957 227.787 154.408 227.787C154.859 227.787 155.242 228.129 155.242 228.566C155.242 229.004 154.859 229.346 154.408 229.346ZM160.109 230.576V231.561H158.551V235.867C158.551 236.824 159.016 236.975 159.521 236.975C159.74 236.975 160.041 236.961 160.219 236.947V238.041C160.041 238.068 159.74 238.096 159.398 238.096C158.414 238.096 157.361 237.48 157.361 236.168V231.561H156.24V230.576H157.361V228.799H158.551V230.576H160.109ZM168.176 238.15C166.07 238.15 164.785 236.551 164.785 234.322C164.785 232.066 166.125 230.48 168.148 230.48C169.734 230.48 170.91 231.41 171.102 232.818H169.926C169.762 232.135 169.16 231.52 168.176 231.52C166.85 231.52 165.961 232.613 165.961 234.281C165.961 236.004 166.822 237.098 168.176 237.098C169.051 237.098 169.721 236.633 169.926 235.812H171.102C170.91 237.139 169.83 238.15 168.176 238.15ZM175.586 238.15C173.562 238.15 172.195 236.633 172.195 234.322C172.195 232.012 173.562 230.48 175.586 230.48C177.596 230.48 178.949 232.012 178.949 234.322C178.949 236.633 177.596 238.15 175.586 238.15ZM175.586 237.111C177.076 237.111 177.773 235.799 177.773 234.322C177.773 232.846 177.076 231.52 175.586 231.52C174.068 231.52 173.371 232.846 173.371 234.322C173.371 235.799 174.068 237.111 175.586 237.111ZM181.67 233.543V238H180.494V230.576H181.629V231.738H181.725C182.08 230.986 182.764 230.48 183.898 230.48C185.402 230.48 186.4 231.396 186.4 233.283V238H185.225V233.365C185.225 232.217 184.596 231.533 183.543 231.533C182.463 231.533 181.67 232.258 181.67 233.543ZM191.295 240.939C189.504 240.939 188.287 240.16 188.15 238.779H189.381C189.545 239.531 190.242 239.914 191.295 239.914C192.566 239.914 193.346 239.367 193.346 238.137V236.633H193.25C193.004 237.043 192.525 237.891 191.09 237.891C189.285 237.891 187.932 236.523 187.932 234.186C187.932 231.902 189.244 230.48 191.104 230.48C192.539 230.48 193.004 231.355 193.277 231.752H193.373V230.576H194.521V238.205C194.521 240.119 193.1 240.939 191.295 240.939ZM191.254 236.838C192.607 236.838 193.373 235.867 193.373 234.227C193.373 232.641 192.635 231.533 191.254 231.533C189.832 231.533 189.121 232.736 189.121 234.227C189.121 235.771 189.846 236.838 191.254 236.838ZM201.084 234.951V230.576H202.246V238H201.084V236.742H201.002C200.646 237.494 199.922 238.096 198.801 238.096C197.393 238.096 196.395 237.18 196.395 235.293V230.576H197.57V235.211C197.57 236.277 198.24 236.961 199.184 236.961C200.018 236.961 201.084 236.332 201.084 234.951ZM207.25 238.15C205.104 238.15 203.777 236.633 203.777 234.35C203.777 232.066 205.117 230.48 207.141 230.48C208.699 230.48 210.34 231.438 210.34 234.186V234.678H204.953C205.008 236.25 205.924 237.111 207.25 237.111C208.139 237.111 208.699 236.729 208.973 236.264H210.23C209.875 237.385 208.781 238.15 207.25 238.15ZM204.967 233.68H209.15C209.15 232.436 208.357 231.52 207.141 231.52C205.855 231.52 205.035 232.531 204.967 233.68Z" fill="#767676"/>
<rect x="102.5" y="100.5" width="231" height="75" rx="15.5" fill="white" stroke="#7497FF"/>
<path d="M119.094 132V122.102H122.457C124.781 122.102 125.834 123.482 125.834 125.246C125.834 126.996 124.781 128.404 122.471 128.404H120.324V132H119.094ZM120.324 127.311H122.416C123.988 127.311 124.617 126.422 124.617 125.246C124.617 124.057 123.988 123.195 122.402 123.195H120.324V127.311ZM128.582 127.543V132H127.406V122.102H128.582V125.738H128.678C129.02 124.973 129.689 124.48 130.865 124.48C132.383 124.48 133.395 125.383 133.395 127.283V132H132.219V127.365C132.219 126.203 131.576 125.533 130.51 125.533C129.402 125.533 128.582 126.258 128.582 127.543ZM134.926 129.895C134.926 128.186 136.43 127.803 137.715 127.707C138.187 127.673 139.39 127.611 139.725 127.598V126.996C139.725 126.053 139.164 125.506 138.043 125.506C137.1 125.506 136.539 125.943 136.375 126.504H135.145C135.295 125.314 136.457 124.48 138.098 124.48C139.068 124.48 140.887 124.768 140.887 127.105V132H139.725V130.988H139.67C139.424 131.494 138.74 132.178 137.455 132.178C136.047 132.178 134.926 131.344 134.926 129.895ZM136.102 129.949C136.102 130.729 136.758 131.125 137.66 131.125C138.986 131.125 139.725 130.236 139.725 129.307V128.555L137.852 128.691C136.785 128.76 136.102 129.143 136.102 129.949ZM146.902 126.504C146.738 125.889 146.273 125.479 145.398 125.479C144.482 125.479 143.826 125.971 143.826 126.6C143.826 127.092 144.223 127.434 145.098 127.639L146.205 127.912C147.531 128.227 148.188 128.883 148.188 129.922C148.188 131.207 147.135 132.15 145.275 132.15C143.607 132.15 142.609 131.412 142.418 130.059H143.648C143.785 130.783 144.318 131.125 145.248 131.125C146.301 131.125 146.971 130.688 146.971 129.99C146.971 129.471 146.602 129.115 145.754 128.924L144.633 128.664C143.334 128.363 142.65 127.652 142.65 126.668C142.65 125.396 143.758 124.48 145.398 124.48C146.93 124.48 147.9 125.301 148.051 126.504H146.902ZM152.836 132.15C150.689 132.15 149.363 130.633 149.363 128.35C149.363 126.066 150.703 124.48 152.727 124.48C154.285 124.48 155.926 125.438 155.926 128.186V128.678H150.539C150.594 130.25 151.51 131.111 152.836 131.111C153.725 131.111 154.285 130.729 154.559 130.264H155.816C155.461 131.385 154.367 132.15 152.836 132.15ZM150.553 127.68H154.736C154.736 126.436 153.943 125.52 152.727 125.52C151.441 125.52 150.621 126.531 150.553 127.68ZM158.633 122.102V132H157.457V122.102H158.633ZM161.682 122.102V132H160.506V122.102H161.682ZM168.244 128.951V124.576H169.406V132H168.244V130.742H168.162C167.807 131.494 167.082 132.096 165.961 132.096C164.553 132.096 163.555 131.18 163.555 129.293V124.576H164.73V129.211C164.73 130.277 165.4 130.961 166.344 130.961C167.178 130.961 168.244 130.332 168.244 128.951ZM175.422 126.504C175.258 125.889 174.793 125.479 173.918 125.479C173.002 125.479 172.346 125.971 172.346 126.6C172.346 127.092 172.742 127.434 173.617 127.639L174.725 127.912C176.051 128.227 176.707 128.883 176.707 129.922C176.707 131.207 175.654 132.15 173.795 132.15C172.127 132.15 171.129 131.412 170.938 130.059H172.168C172.305 130.783 172.838 131.125 173.768 131.125C174.82 131.125 175.49 130.688 175.49 129.99C175.49 129.471 175.121 129.115 174.273 128.924L173.152 128.664C171.854 128.363 171.17 127.652 171.17 126.668C171.17 125.396 172.277 124.48 173.918 124.48C175.449 124.48 176.42 125.301 176.57 126.504H175.422ZM181.752 134.789V124.576H182.887V125.752H183.023C183.27 125.355 183.734 124.48 185.17 124.48C187.029 124.48 188.328 125.957 188.328 128.309C188.328 130.66 187.029 132.15 185.184 132.15C183.762 132.15 183.27 131.275 183.023 130.865H182.928V134.789H181.752ZM182.9 128.281C182.9 129.949 183.652 131.098 185.02 131.098C186.428 131.098 187.152 129.867 187.152 128.281C187.152 126.736 186.441 125.533 185.02 125.533C183.625 125.533 182.9 126.641 182.9 128.281ZM191.035 127.543V132H189.859V122.102H191.035V125.738H191.131C191.473 124.973 192.143 124.48 193.318 124.48C194.836 124.48 195.848 125.383 195.848 127.283V132H194.672V127.365C194.672 126.203 194.029 125.533 192.963 125.533C191.855 125.533 191.035 126.258 191.035 127.543ZM197.379 129.895C197.379 128.186 198.883 127.803 200.168 127.707C200.64 127.673 201.843 127.611 202.178 127.598V126.996C202.178 126.053 201.617 125.506 200.496 125.506C199.553 125.506 198.992 125.943 198.828 126.504H197.598C197.748 125.314 198.91 124.48 200.551 124.48C201.521 124.48 203.34 124.768 203.34 127.105V132H202.178V130.988H202.123C201.877 131.494 201.193 132.178 199.908 132.178C198.5 132.178 197.379 131.344 197.379 129.895ZM198.555 129.949C198.555 130.729 199.211 131.125 200.113 131.125C201.439 131.125 202.178 130.236 202.178 129.307V128.555L200.305 128.691C199.238 128.76 198.555 129.143 198.555 129.949ZM205.227 132V124.576H206.361V125.711H206.443C206.717 124.959 207.482 124.453 208.357 124.453C208.535 124.453 208.836 124.467 208.973 124.48V125.67C208.891 125.643 208.562 125.588 208.262 125.588C207.195 125.588 206.402 126.326 206.402 127.324V132H205.227ZM212.992 132.15C210.846 132.15 209.52 130.633 209.52 128.35C209.52 126.066 210.859 124.48 212.883 124.48C214.441 124.48 216.082 125.438 216.082 128.186V128.678H210.695C210.75 130.25 211.666 131.111 212.992 131.111C213.881 131.111 214.441 130.729 214.715 130.264H215.973C215.617 131.385 214.523 132.15 212.992 132.15ZM210.709 127.68H214.893C214.893 126.436 214.1 125.52 212.883 125.52C211.598 125.52 210.777 126.531 210.709 127.68ZM220.854 124.576V125.561H219.295V129.867C219.295 130.824 219.76 130.975 220.266 130.975C220.484 130.975 220.785 130.961 220.963 130.947V132.041C220.785 132.068 220.484 132.096 220.143 132.096C219.158 132.096 218.105 131.48 218.105 130.168V125.561H216.984V124.576H218.105V122.799H219.295V124.576H220.854ZM222.371 132V124.576H223.506V125.711H223.588C223.861 124.959 224.627 124.453 225.502 124.453C225.68 124.453 225.98 124.467 226.117 124.48V125.67C226.035 125.643 225.707 125.588 225.406 125.588C224.34 125.588 223.547 126.326 223.547 127.324V132H222.371ZM226.896 129.895C226.896 128.186 228.4 127.803 229.686 127.707C230.157 127.673 231.36 127.611 231.695 127.598V126.996C231.695 126.053 231.135 125.506 230.014 125.506C229.07 125.506 228.51 125.943 228.346 126.504H227.115C227.266 125.314 228.428 124.48 230.068 124.48C231.039 124.48 232.857 124.768 232.857 127.105V132H231.695V130.988H231.641C231.395 131.494 230.711 132.178 229.426 132.178C228.018 132.178 226.896 131.344 226.896 129.895ZM228.072 129.949C228.072 130.729 228.729 131.125 229.631 131.125C230.957 131.125 231.695 130.236 231.695 129.307V128.555L229.822 128.691C228.756 128.76 228.072 129.143 228.072 129.949ZM241.375 132.15C239.229 132.15 237.902 130.633 237.902 128.35C237.902 126.066 239.242 124.48 241.266 124.48C242.824 124.48 244.465 125.438 244.465 128.186V128.678H239.078C239.133 130.25 240.049 131.111 241.375 131.111C242.264 131.111 242.824 130.729 243.098 130.264H244.355C244 131.385 242.906 132.15 241.375 132.15ZM239.092 127.68H243.275C243.275 126.436 242.482 125.52 241.266 125.52C239.98 125.52 239.16 126.531 239.092 127.68ZM247.172 127.543V132H245.996V124.576H247.131V125.738H247.227C247.582 124.986 248.266 124.48 249.4 124.48C250.904 124.48 251.902 125.396 251.902 127.283V132H250.727V127.365C250.727 126.217 250.098 125.533 249.045 125.533C247.965 125.533 247.172 126.258 247.172 127.543ZM253.789 132V124.576H254.965V132H253.789ZM254.377 123.346C253.926 123.346 253.557 123.004 253.557 122.566C253.557 122.129 253.926 121.787 254.377 121.787C254.828 121.787 255.211 122.129 255.211 122.566C255.211 123.004 254.828 123.346 254.377 123.346ZM256.838 132V124.576H257.973V125.738H258.068C258.383 124.945 259.094 124.48 260.064 124.48C261.035 124.48 261.691 124.945 262.047 125.738H262.129C262.512 124.973 263.291 124.48 264.357 124.48C265.684 124.48 266.627 125.287 266.627 127.037V132H265.451V127.051C265.451 125.957 264.754 125.533 263.947 125.533C262.908 125.533 262.32 126.23 262.32 127.174V132H261.131V126.928C261.131 126.094 260.529 125.533 259.682 125.533C258.793 125.533 258.014 126.285 258.014 127.365V132H256.838ZM272.027 134.789V124.576H273.162V125.752H273.299C273.545 125.355 274.01 124.48 275.445 124.48C277.305 124.48 278.604 125.957 278.604 128.309C278.604 130.66 277.305 132.15 275.459 132.15C274.037 132.15 273.545 131.275 273.299 130.865H273.203V134.789H272.027ZM273.176 128.281C273.176 129.949 273.928 131.098 275.295 131.098C276.703 131.098 277.428 129.867 277.428 128.281C277.428 126.736 276.717 125.533 275.295 125.533C273.9 125.533 273.176 126.641 273.176 128.281ZM284.824 128.951V124.576H285.986V132H284.824V130.742H284.742C284.387 131.494 283.662 132.096 282.541 132.096C281.133 132.096 280.135 131.18 280.135 129.293V124.576H281.311V129.211C281.311 130.277 281.98 130.961 282.924 130.961C283.758 130.961 284.824 130.332 284.824 128.951ZM287.873 132V124.576H289.008V125.711H289.09C289.363 124.959 290.129 124.453 291.004 124.453C291.182 124.453 291.482 124.467 291.619 124.48V125.67C291.537 125.643 291.209 125.588 290.908 125.588C289.842 125.588 289.049 126.326 289.049 127.324V132H287.873ZM297.457 128.951V124.576H298.619V132H297.457V130.742H297.375C297.02 131.494 296.295 132.096 295.174 132.096C293.766 132.096 292.768 131.18 292.768 129.293V124.576H293.943V129.211C293.943 130.277 294.613 130.961 295.557 130.961C296.391 130.961 297.457 130.332 297.457 128.951ZM304.635 126.504C304.471 125.889 304.006 125.479 303.131 125.479C302.215 125.479 301.559 125.971 301.559 126.6C301.559 127.092 301.955 127.434 302.83 127.639L303.938 127.912C305.264 128.227 305.92 128.883 305.92 129.922C305.92 131.207 304.867 132.15 303.008 132.15C301.34 132.15 300.342 131.412 300.15 130.059H301.381C301.518 130.783 302.051 131.125 302.98 131.125C304.033 131.125 304.703 130.688 304.703 129.99C304.703 129.471 304.334 129.115 303.486 128.924L302.365 128.664C301.066 128.363 300.383 127.652 300.383 126.668C300.383 125.396 301.49 124.48 303.131 124.48C304.662 124.48 305.633 125.301 305.783 126.504H304.635ZM308.996 131.084L307.93 134.803H306.918L307.67 131.084H308.996ZM122.061 154.15C119.914 154.15 118.588 152.633 118.588 150.35C118.588 148.066 119.928 146.48 121.951 146.48C123.51 146.48 125.15 147.438 125.15 150.186V150.678H119.764C119.818 152.25 120.734 153.111 122.061 153.111C122.949 153.111 123.51 152.729 123.783 152.264H125.041C124.686 153.385 123.592 154.15 122.061 154.15ZM119.777 149.68H123.961C123.961 148.436 123.168 147.52 121.951 147.52C120.666 147.52 119.846 148.531 119.777 149.68ZM131.371 150.951V146.576H132.533V154H131.371V152.742H131.289C130.934 153.494 130.209 154.096 129.088 154.096C127.68 154.096 126.682 153.18 126.682 151.293V146.576H127.857V151.211C127.857 152.277 128.527 152.961 129.471 152.961C130.305 152.961 131.371 152.332 131.371 150.951ZM141.256 146.576V147.561H139.615V154H138.426V147.561H137.236V146.576H138.426V145.564C138.426 144.361 139.232 143.637 140.545 143.637C140.832 143.637 141.174 143.678 141.42 143.719V144.771C141.174 144.73 140.955 144.717 140.805 144.717C139.984 144.717 139.615 145.059 139.615 145.824V146.576H141.256ZM142.076 151.895C142.076 150.186 143.58 149.803 144.865 149.707C145.337 149.673 146.54 149.611 146.875 149.598V148.996C146.875 148.053 146.314 147.506 145.193 147.506C144.25 147.506 143.689 147.943 143.525 148.504H142.295C142.445 147.314 143.607 146.48 145.248 146.48C146.219 146.48 148.037 146.768 148.037 149.105V154H146.875V152.988H146.82C146.574 153.494 145.891 154.178 144.605 154.178C143.197 154.178 142.076 153.344 142.076 151.895ZM143.252 151.949C143.252 152.729 143.908 153.125 144.811 153.125C146.137 153.125 146.875 152.236 146.875 151.307V150.555L145.002 150.691C143.936 150.76 143.252 151.143 143.252 151.949ZM152.959 154.15C150.854 154.15 149.568 152.551 149.568 150.322C149.568 148.066 150.908 146.48 152.932 146.48C154.518 146.48 155.693 147.41 155.885 148.818H154.709C154.545 148.135 153.943 147.52 152.959 147.52C151.633 147.52 150.744 148.613 150.744 150.281C150.744 152.004 151.605 153.098 152.959 153.098C153.834 153.098 154.504 152.633 154.709 151.812H155.885C155.693 153.139 154.613 154.15 152.959 154.15ZM157.334 154V146.576H158.51V154H157.334ZM157.922 145.346C157.471 145.346 157.102 145.004 157.102 144.566C157.102 144.129 157.471 143.787 157.922 143.787C158.373 143.787 158.756 144.129 158.756 144.566C158.756 145.004 158.373 145.346 157.922 145.346ZM161.559 144.102V154H160.383V144.102H161.559ZM163.432 154V146.576H164.607V154H163.432ZM164.02 145.346C163.568 145.346 163.199 145.004 163.199 144.566C163.199 144.129 163.568 143.787 164.02 143.787C164.471 143.787 164.854 144.129 164.854 144.566C164.854 145.004 164.471 145.346 164.02 145.346ZM170.609 148.504C170.445 147.889 169.98 147.479 169.105 147.479C168.189 147.479 167.533 147.971 167.533 148.6C167.533 149.092 167.93 149.434 168.805 149.639L169.912 149.912C171.238 150.227 171.895 150.883 171.895 151.922C171.895 153.207 170.842 154.15 168.982 154.15C167.314 154.15 166.316 153.412 166.125 152.059H167.355C167.492 152.783 168.025 153.125 168.955 153.125C170.008 153.125 170.678 152.688 170.678 151.99C170.678 151.471 170.309 151.115 169.461 150.924L168.34 150.664C167.041 150.363 166.357 149.652 166.357 148.668C166.357 147.396 167.465 146.48 169.105 146.48C170.637 146.48 171.607 147.301 171.758 148.504H170.609ZM173.426 154V146.576H174.602V154H173.426ZM174.014 145.346C173.562 145.346 173.193 145.004 173.193 144.566C173.193 144.129 173.562 143.787 174.014 143.787C174.465 143.787 174.848 144.129 174.848 144.566C174.848 145.004 174.465 145.346 174.014 145.346ZM180.604 148.504C180.439 147.889 179.975 147.479 179.1 147.479C178.184 147.479 177.527 147.971 177.527 148.6C177.527 149.092 177.924 149.434 178.799 149.639L179.906 149.912C181.232 150.227 181.889 150.883 181.889 151.922C181.889 153.207 180.836 154.15 178.977 154.15C177.309 154.15 176.311 153.412 176.119 152.059H177.35C177.486 152.783 178.02 153.125 178.949 153.125C180.002 153.125 180.672 152.688 180.672 151.99C180.672 151.471 180.303 151.115 179.455 150.924L178.334 150.664C177.035 150.363 176.352 149.652 176.352 148.668C176.352 147.396 177.459 146.48 179.1 146.48C180.631 146.48 181.602 147.301 181.752 148.504H180.604ZM190.174 146.576V147.561H188.615V151.867C188.615 152.824 189.08 152.975 189.586 152.975C189.805 152.975 190.105 152.961 190.283 152.947V154.041C190.105 154.068 189.805 154.096 189.463 154.096C188.479 154.096 187.426 153.48 187.426 152.168V147.561H186.305V146.576H187.426V144.799H188.615V146.576H190.174ZM194.645 154.15C192.621 154.15 191.254 152.633 191.254 150.322C191.254 148.012 192.621 146.48 194.645 146.48C196.654 146.48 198.008 148.012 198.008 150.322C198.008 152.633 196.654 154.15 194.645 154.15ZM194.645 153.111C196.135 153.111 196.832 151.799 196.832 150.322C196.832 148.846 196.135 147.52 194.645 147.52C193.127 147.52 192.43 148.846 192.43 150.322C192.43 151.799 193.127 153.111 194.645 153.111ZM199.553 154V146.576H200.688V147.711H200.77C201.043 146.959 201.809 146.453 202.684 146.453C202.861 146.453 203.162 146.467 203.299 146.48V147.67C203.217 147.643 202.889 147.588 202.588 147.588C201.521 147.588 200.729 148.326 200.729 149.324V154H199.553ZM208.152 146.576V147.561H206.594V151.867C206.594 152.824 207.059 152.975 207.564 152.975C207.783 152.975 208.084 152.961 208.262 152.947V154.041C208.084 154.068 207.783 154.096 207.441 154.096C206.457 154.096 205.404 153.48 205.404 152.168V147.561H204.283V146.576H205.404V144.799H206.594V146.576H208.152ZM212.623 154.15C210.6 154.15 209.232 152.633 209.232 150.322C209.232 148.012 210.6 146.48 212.623 146.48C214.633 146.48 215.986 148.012 215.986 150.322C215.986 152.633 214.633 154.15 212.623 154.15ZM212.623 153.111C214.113 153.111 214.811 151.799 214.811 150.322C214.811 148.846 214.113 147.52 212.623 147.52C211.105 147.52 210.408 148.846 210.408 150.322C210.408 151.799 211.105 153.111 212.623 153.111ZM217.531 154V146.576H218.666V147.711H218.748C219.021 146.959 219.787 146.453 220.662 146.453C220.84 146.453 221.141 146.467 221.277 146.48V147.67C221.195 147.643 220.867 147.588 220.566 147.588C219.5 147.588 218.707 148.326 218.707 149.324V154H217.531ZM222.412 154.082C221.934 154.082 221.523 153.686 221.537 153.193C221.523 152.715 221.934 152.318 222.412 152.318C222.891 152.318 223.287 152.715 223.287 153.193C223.287 153.686 222.891 154.082 222.412 154.082Z" fill="black"/>
<g filter="url(#filter0_b_709_749)">
<path d="M0 352C0 348.285 0 346.428 0.154089 344.863C1.65046 329.671 13.6706 317.65 28.8635 316.154C30.4279 316 32.2853 316 36 316H306C309.715 316 311.572 316 313.137 316.154C328.329 317.65 340.35 329.671 341.846 344.863C342 346.428 342 348.285 342 352V352C342 355.715 342 357.572 341.846 359.137C340.35 374.329 328.329 386.35 313.137 387.846C311.572 388 309.715 388 306 388H36C32.2853 388 30.4279 388 28.8635 387.846C13.6706 386.35 1.65046 374.329 0.154089 359.137C0 357.572 0 355.715 0 352V352Z" fill="#DDDDDD" fill-opacity="0.3"/>
<path d="M36 316.5H306C309.727 316.5 311.554 316.501 313.088 316.652C328.043 318.125 339.875 329.957 341.348 344.912C341.499 346.446 341.5 348.273 341.5 352C341.5 355.727 341.499 357.554 341.348 359.088C339.875 374.043 328.043 385.875 313.088 387.348C311.554 387.499 309.727 387.5 306 387.5H36C32.2734 387.5 30.4463 387.499 28.9125 387.348C13.957 385.875 2.12467 374.043 0.651681 359.088C0.500607 357.554 0.5 355.727 0.5 352C0.5 348.273 0.500607 346.446 0.651681 344.912C2.12467 329.957 13.957 318.125 28.9125 316.652C30.4463 316.501 32.2734 316.5 36 316.5Z" stroke="white" stroke-opacity="0.8"/>
</g>
<path d="M315.693 349L302.54 358.526L302.54 339.474L315.693 349Z" fill="#7497FF"/>
<path d="M28.9394 358C28.4571 358 28.0442 357.804 27.7007 357.413C27.3573 357.021 27.1855 356.55 27.1855 356V352H28.9394V356H32.4471V358H28.9394ZM37.7086 358V356H41.2163V352H42.9702V356C42.9702 356.55 42.7984 357.021 42.455 357.413C42.1115 357.804 41.6986 358 41.2163 358H37.7086ZM27.1855 346V342C27.1855 341.45 27.3573 340.979 27.7007 340.588C28.0442 340.196 28.4571 340 28.9394 340H32.4471V342H28.9394V346H27.1855ZM41.2163 346V342H37.7086V340H41.2163C41.6986 340 42.1115 340.196 42.455 340.588C42.7984 340.979 42.9702 341.45 42.9702 342V346H41.2163Z" fill="#999999"/>
<path d="M32.2721 345H37.8844C38.2702 345 38.5859 345.36 38.5859 345.8V353L37.1829 351.4H32.2721C31.8862 351.4 31.5706 351.04 31.5706 350.6V345.8C31.5706 345.36 31.8862 345 32.2721 345Z" fill="#999999"/>
<path d="M61.1533 360.107C59.4238 360.107 58.4355 358.657 58.4355 356.111C58.4355 353.587 59.4453 352.115 61.1533 352.115C62.8613 352.115 63.8711 353.587 63.8711 356.111C63.8711 358.657 62.8721 360.107 61.1533 360.107ZM61.1533 359.248C62.2705 359.248 62.9258 358.12 62.9258 356.111C62.9258 354.103 62.2705 352.953 61.1533 352.953C60.0361 352.953 59.3701 354.103 59.3701 356.111C59.3701 358.12 60.0254 359.248 61.1533 359.248ZM65.1602 360L65.1494 359.291L67.8027 356.498C68.7266 355.521 69.167 354.994 69.167 354.274C69.167 353.479 68.4902 352.953 67.6201 352.953C66.6963 352.953 66.1055 353.544 66.1055 354.414H65.1924C65.1816 353.039 66.2451 352.115 67.6523 352.115C69.0596 352.115 70.0693 353.061 70.0693 354.274C70.0693 355.145 69.6611 355.821 68.2861 357.239L66.5029 359.076V359.141H70.209V360H65.1602ZM72.2822 358.969C71.9062 358.969 71.584 358.657 71.5947 358.271C71.584 357.895 71.9062 357.583 72.2822 357.583C72.6582 357.583 72.9697 357.895 72.9697 358.271C72.9697 358.657 72.6582 358.969 72.2822 358.969ZM72.2822 354.65C71.9062 354.65 71.584 354.339 71.5947 353.952C71.584 353.576 71.9062 353.265 72.2822 353.265C72.6582 353.265 72.9697 353.576 72.9697 353.952C72.9697 354.339 72.6582 354.65 72.2822 354.65ZM77.1592 352.223V360H76.1816V353.232H76.1387L74.248 354.489V353.512L76.1816 352.223H77.1592ZM79.2324 360L79.2217 359.291L81.875 356.498C82.7988 355.521 83.2393 354.994 83.2393 354.274C83.2393 353.479 82.5625 352.953 81.6924 352.953C80.7686 352.953 80.1777 353.544 80.1777 354.414H79.2646C79.2539 353.039 80.3174 352.115 81.7246 352.115C83.1318 352.115 84.1416 353.061 84.1416 354.274C84.1416 355.145 83.7334 355.821 82.3584 357.239L80.5752 359.076V359.141H84.2812V360H79.2324Z" fill="#767676"/>
<path d="M257.528 360.107C255.799 360.107 254.811 358.657 254.811 356.111C254.811 353.587 255.82 352.115 257.528 352.115C259.236 352.115 260.246 353.587 260.246 356.111C260.246 358.657 259.247 360.107 257.528 360.107ZM257.528 359.248C258.646 359.248 259.301 358.12 259.301 356.111C259.301 354.103 258.646 352.953 257.528 352.953C256.411 352.953 255.745 354.103 255.745 356.111C255.745 358.12 256.4 359.248 257.528 359.248ZM261.342 358.41V357.615L264.844 352.223H266.036V357.562H267.121V358.41H266.036V360H265.112V358.41H261.342ZM262.384 357.562H265.112V353.447H265.016L262.384 357.497V357.562ZM269.065 358.969C268.689 358.969 268.367 358.657 268.378 358.271C268.367 357.895 268.689 357.583 269.065 357.583C269.441 357.583 269.753 357.895 269.753 358.271C269.753 358.657 269.441 358.969 269.065 358.969ZM269.065 354.65C268.689 354.65 268.367 354.339 268.378 353.952C268.367 353.576 268.689 353.265 269.065 353.265C269.441 353.265 269.753 353.576 269.753 353.952C269.753 354.339 269.441 354.65 269.065 354.65ZM273.878 360.107C272.331 360.107 271.225 359.28 271.171 358.045H272.148C272.202 358.786 272.943 359.248 273.867 359.248C274.888 359.248 275.64 358.689 275.64 357.884C275.64 357.035 274.963 356.434 273.749 356.434H273.115V355.585H273.749C274.694 355.585 275.35 355.059 275.35 354.253C275.35 353.479 274.78 352.953 273.899 352.953C273.072 352.953 272.31 353.415 272.267 354.178H271.332C271.386 352.942 272.524 352.115 273.91 352.115C275.393 352.115 276.295 353.082 276.284 354.199C276.295 355.08 275.779 355.735 274.963 355.961V356.015C275.973 356.176 276.596 356.896 276.585 357.884C276.596 359.162 275.425 360.107 273.878 360.107ZM280.517 360.107C279.109 360.107 278.046 359.237 277.992 358.045H278.927C279.002 358.743 279.679 359.259 280.517 359.259C281.526 359.259 282.257 358.518 282.257 357.54C282.257 356.53 281.494 355.789 280.452 355.778C279.797 355.768 279.292 355.972 279.002 356.477H278.067L278.615 352.223H282.826V353.082H279.421L279.131 355.359H279.206C279.55 355.091 280.076 354.908 280.624 354.908C282.106 354.908 283.202 356.004 283.202 357.519C283.202 359.022 282.063 360.107 280.517 360.107Z" fill="#767676"/>
<rect x="57.877" y="343" width="226.246" height="2" rx="1" fill="black"/>
<rect x="57.877" y="343" width="103.477" height="2" rx="1" fill="#7497FF"/>
<ellipse cx="161.353" cy="344" rx="3.50769" ry="4" fill="#7497FF"/>
<defs>
<filter id="filter0_b_709_749" x="-20" y="296" width="382" height="112" filterUnits="userSpaceOnUse" color-interpolation-filters="sRGB">
<feFlood flood-opacity="0" result="BackgroundImageFix"/>
<feGaussianBlur in="BackgroundImageFix" stdDeviation="10"/>
<feComposite in2="SourceAlpha" operator="in" result="effect1_backgroundBlur_709_749"/>
<feBlend mode="normal" in="SourceGraphic" in2="effect1_backgroundBlur_709_749" result="shape"/>
</filter>
</defs>
</svg>
