<svg width="32" height="32" viewBox="0 0 32 32" fill="none" xmlns="http://www.w3.org/2000/svg">
<g id="Chat bubble outline" clip-path="url(#clip0_252_527)">
<path id="Vector" d="M26.6665 2.66675H5.33317C3.8665 2.66675 2.6665 3.86675 2.6665 5.33341V29.3334L7.99984 24.0001H26.6665C28.1332 24.0001 29.3332 22.8001 29.3332 21.3334V5.33341C29.3332 3.86675 28.1332 2.66675 26.6665 2.66675ZM26.6665 21.3334H7.99984L5.33317 24.0001V5.33341H26.6665V21.3334Z" fill="#999999"/>
<g id="ex">
<path id="Vector_2" d="M17.7773 10.0752L18.8623 12.127L19.9688 10.0752H21.6123L19.9043 12.9863L21.6553 15.9082H20.0225L18.8623 13.8779L17.7236 15.9082H16.0693L17.8096 12.9863L16.1338 10.0752H17.7773Z" fill="#999999"/>
<path id="Vector_3" d="M12.8789 16.0264C11.0957 16.0264 10 14.8662 10 13.0186C10 11.2139 11.1064 10 12.8145 10C14.3506 10 15.5537 10.9668 15.5537 12.9541V13.4053H11.5684C11.5684 14.2861 12.0947 14.834 12.9111 14.834C13.4482 14.834 13.835 14.5977 13.9961 14.2432H15.5107C15.2852 15.3174 14.3184 16.0264 12.8789 16.0264ZM11.5684 12.4062H14.0498C14.0498 11.6973 13.5557 11.1924 12.8467 11.1924C12.1162 11.1924 11.5952 11.7349 11.5684 12.4062Z" fill="#999999"/>
</g>
</g>
<defs>
<clipPath id="clip0_252_527">
<rect width="32" height="32" fill="white"/>
</clipPath>
</defs>
</svg>
