<svg width="18" height="18" viewBox="0 0 18 18" fill="none" xmlns="http://www.w3.org/2000/svg">
<g clip-path="url(#clip0_237_641)">
<path d="M13.5 5.5H13.25V4.5C13.25 2.15386 11.3461 0.25 9 0.25C6.65386 0.25 4.75 2.15386 4.75 4.5V5.5H4.5C3.39886 5.5 2.5 6.39886 2.5 7.5V15C2.5 16.1011 3.39886 17 4.5 17H13.5C14.6011 17 15.5 16.1011 15.5 15V7.5C15.5 6.39886 14.6011 5.5 13.5 5.5ZM9 12.25C8.45114 12.25 8 11.7989 8 11.25C8 10.7011 8.45114 10.25 9 10.25C9.54886 10.25 10 10.7011 10 11.25C10 11.7989 9.54886 12.25 9 12.25ZM10.825 5.5H7.175V4.5C7.175 3.49364 7.99364 2.675 9 2.675C10.0064 2.675 10.825 3.49364 10.825 4.5V5.5Z" fill="#0077FF" stroke="white"/>
</g>
<defs>
<clipPath id="clip0_237_641">
<rect width="18" height="18" fill="white"/>
</clipPath>
</defs>
</svg>
