<svg width="342" height="388" viewBox="0 0 342 388" fill="none" xmlns="http://www.w3.org/2000/svg">
<rect width="342" height="388" rx="32" fill="#EEEEEE"/>
<rect x="102" y="16" width="232" height="76" rx="16" fill="#7497FF"/>
<path d="M119.094 38.1016H120.57L123.906 46.25H124.029L127.365 38.1016H128.842V48H127.68V40.5215H127.584L124.508 48H123.414L120.338 40.5215H120.256V48H119.094V38.1016ZM130.523 45.8945C130.523 44.1855 132.027 43.8027 133.312 43.707C133.784 43.6729 134.987 43.6113 135.322 43.5977V42.9961C135.322 42.0527 134.762 41.5059 133.641 41.5059C132.697 41.5059 132.137 41.9434 131.973 42.5039H130.742C130.893 41.3145 132.055 40.4805 133.695 40.4805C134.666 40.4805 136.484 40.7676 136.484 43.1055V48H135.322V46.9883H135.268C135.021 47.4941 134.338 48.1777 133.053 48.1777C131.645 48.1777 130.523 47.3438 130.523 45.8945ZM131.699 45.9492C131.699 46.7285 132.355 47.125 133.258 47.125C134.584 47.125 135.322 46.2363 135.322 45.3066V44.5547L133.449 44.6914C132.383 44.7598 131.699 45.1426 131.699 45.9492ZM143.061 44.9512V40.5762H144.223V48H143.061V46.7422H142.979C142.623 47.4941 141.898 48.0957 140.777 48.0957C139.369 48.0957 138.371 47.1797 138.371 45.293V40.5762H139.547V45.2109C139.547 46.2773 140.217 46.9609 141.16 46.9609C141.994 46.9609 143.061 46.332 143.061 44.9512ZM146.109 48V40.5762H147.244V41.7109H147.326C147.6 40.959 148.365 40.4531 149.24 40.4531C149.418 40.4531 149.719 40.4668 149.855 40.4805V41.6699C149.773 41.6426 149.445 41.5879 149.145 41.5879C148.078 41.5879 147.285 42.3262 147.285 43.3242V48H146.109ZM151.004 48V40.5762H152.18V48H151.004ZM151.592 39.3457C151.141 39.3457 150.771 39.0039 150.771 38.5664C150.771 38.1289 151.141 37.7871 151.592 37.7871C152.043 37.7871 152.426 38.1289 152.426 38.5664C152.426 39.0039 152.043 39.3457 151.592 39.3457ZM158.182 42.5039C158.018 41.8887 157.553 41.4785 156.678 41.4785C155.762 41.4785 155.105 41.9707 155.105 42.5996C155.105 43.0918 155.502 43.4336 156.377 43.6387L157.484 43.9121C158.811 44.2266 159.467 44.8828 159.467 45.9219C159.467 47.207 158.414 48.1504 156.555 48.1504C154.887 48.1504 153.889 47.4121 153.697 46.0586H154.928C155.064 46.7832 155.598 47.125 156.527 47.125C157.58 47.125 158.25 46.6875 158.25 45.9902C158.25 45.4707 157.881 45.1152 157.033 44.9238L155.912 44.6641C154.613 44.3633 153.93 43.6523 153.93 42.668C153.93 41.3965 155.037 40.4805 156.678 40.4805C158.209 40.4805 159.18 41.3008 159.33 42.5039H158.182ZM168.641 42.5039C168.477 41.8887 168.012 41.4785 167.137 41.4785C166.221 41.4785 165.564 41.9707 165.564 42.5996C165.564 43.0918 165.961 43.4336 166.836 43.6387L167.943 43.9121C169.27 44.2266 169.926 44.8828 169.926 45.9219C169.926 47.207 168.873 48.1504 167.014 48.1504C165.346 48.1504 164.348 47.4121 164.156 46.0586H165.387C165.523 46.7832 166.057 47.125 166.986 47.125C168.039 47.125 168.709 46.6875 168.709 45.9902C168.709 45.4707 168.34 45.1152 167.492 44.9238L166.371 44.6641C165.072 44.3633 164.389 43.6523 164.389 42.668C164.389 41.3965 165.496 40.4805 167.137 40.4805C168.668 40.4805 169.639 41.3008 169.789 42.5039H168.641ZM174.492 48.1504C172.387 48.1504 171.102 46.5508 171.102 44.3223C171.102 42.0664 172.441 40.4805 174.465 40.4805C176.051 40.4805 177.227 41.4102 177.418 42.8184H176.242C176.078 42.1348 175.477 41.5195 174.492 41.5195C173.166 41.5195 172.277 42.6133 172.277 44.2812C172.277 46.0039 173.139 47.0977 174.492 47.0977C175.367 47.0977 176.037 46.6328 176.242 45.8125H177.418C177.227 47.1387 176.146 48.1504 174.492 48.1504ZM181.984 48.1504C179.838 48.1504 178.512 46.6328 178.512 44.3496C178.512 42.0664 179.852 40.4805 181.875 40.4805C183.434 40.4805 185.074 41.4375 185.074 44.1855V44.6777H179.688C179.742 46.25 180.658 47.1113 181.984 47.1113C182.873 47.1113 183.434 46.7285 183.707 46.2637H184.965C184.609 47.3848 183.516 48.1504 181.984 48.1504ZM179.701 43.6797H183.885C183.885 42.4355 183.092 41.5195 181.875 41.5195C180.59 41.5195 179.77 42.5312 179.701 43.6797ZM187.781 38.1016V48H186.605V38.1016H187.781ZM192.771 48.1504C190.625 48.1504 189.299 46.6328 189.299 44.3496C189.299 42.0664 190.639 40.4805 192.662 40.4805C194.221 40.4805 195.861 41.4375 195.861 44.1855V44.6777H190.475C190.529 46.25 191.445 47.1113 192.771 47.1113C193.66 47.1113 194.221 46.7285 194.494 46.2637H195.752C195.396 47.3848 194.303 48.1504 192.771 48.1504ZM190.488 43.6797H194.672C194.672 42.4355 193.879 41.5195 192.662 41.5195C191.377 41.5195 190.557 42.5312 190.488 43.6797ZM197.393 48V40.5762H198.527V41.7109H198.609C198.883 40.959 199.648 40.4531 200.523 40.4531C200.701 40.4531 201.002 40.4668 201.139 40.4805V41.6699C201.057 41.6426 200.729 41.5879 200.428 41.5879C199.361 41.5879 198.568 42.3262 198.568 43.3242V48H197.393ZM202.287 48V40.5762H203.463V48H202.287ZM202.875 39.3457C202.424 39.3457 202.055 39.0039 202.055 38.5664C202.055 38.1289 202.424 37.7871 202.875 37.7871C203.326 37.7871 203.709 38.1289 203.709 38.5664C203.709 39.0039 203.326 39.3457 202.875 39.3457ZM209.465 42.5039C209.301 41.8887 208.836 41.4785 207.961 41.4785C207.045 41.4785 206.389 41.9707 206.389 42.5996C206.389 43.0918 206.785 43.4336 207.66 43.6387L208.768 43.9121C210.094 44.2266 210.75 44.8828 210.75 45.9219C210.75 47.207 209.697 48.1504 207.838 48.1504C206.17 48.1504 205.172 47.4121 204.98 46.0586H206.211C206.348 46.7832 206.881 47.125 207.811 47.125C208.863 47.125 209.533 46.6875 209.533 45.9902C209.533 45.4707 209.164 45.1152 208.316 44.9238L207.195 44.6641C205.896 44.3633 205.213 43.6523 205.213 42.668C205.213 41.3965 206.32 40.4805 207.961 40.4805C209.492 40.4805 210.463 41.3008 210.613 42.5039H209.465ZM217.326 50.7891V46.8652H217.244C216.984 47.2754 216.506 48.1504 215.084 48.1504C213.238 48.1504 211.926 46.6602 211.926 44.3086C211.926 41.957 213.238 40.4805 215.098 40.4805C216.533 40.4805 216.998 41.3555 217.244 41.752H217.367V40.5762H218.516V50.7891H217.326ZM215.248 47.0977C216.602 47.0977 217.367 45.9492 217.367 44.2812C217.367 42.6406 216.629 41.5332 215.248 41.5332C213.826 41.5332 213.115 42.7363 213.115 44.2812C213.115 45.8672 213.84 47.0977 215.248 47.0977ZM225.078 44.9512V40.5762H226.24V48H225.078V46.7422H224.996C224.641 47.4941 223.916 48.0957 222.795 48.0957C221.387 48.0957 220.389 47.1797 220.389 45.293V40.5762H221.564V45.2109C221.564 46.2773 222.234 46.9609 223.178 46.9609C224.012 46.9609 225.078 46.332 225.078 44.9512ZM231.244 48.1504C229.098 48.1504 227.771 46.6328 227.771 44.3496C227.771 42.0664 229.111 40.4805 231.135 40.4805C232.693 40.4805 234.334 41.4375 234.334 44.1855V44.6777H228.947C229.002 46.25 229.918 47.1113 231.244 47.1113C232.133 47.1113 232.693 46.7285 232.967 46.2637H234.225C233.869 47.3848 232.775 48.1504 231.244 48.1504ZM228.961 43.6797H233.145C233.145 42.4355 232.352 41.5195 231.135 41.5195C229.85 41.5195 229.029 42.5312 228.961 43.6797ZM240.555 38.1016V48H239.379V38.1016H240.555ZM245.463 48.1504C243.439 48.1504 242.072 46.6328 242.072 44.3223C242.072 42.0117 243.439 40.4805 245.463 40.4805C247.473 40.4805 248.826 42.0117 248.826 44.3223C248.826 46.6328 247.473 48.1504 245.463 48.1504ZM245.463 47.1113C246.953 47.1113 247.65 45.7988 247.65 44.3223C247.65 42.8457 246.953 41.5195 245.463 41.5195C243.945 41.5195 243.248 42.8457 243.248 44.3223C243.248 45.7988 243.945 47.1113 245.463 47.1113ZM250.371 48V40.5762H251.506V41.7109H251.588C251.861 40.959 252.627 40.4531 253.502 40.4531C253.68 40.4531 253.98 40.4668 254.117 40.4805V41.6699C254.035 41.6426 253.707 41.5879 253.406 41.5879C252.34 41.5879 251.547 42.3262 251.547 43.3242V48H250.371ZM258.137 48.1504C255.99 48.1504 254.664 46.6328 254.664 44.3496C254.664 42.0664 256.004 40.4805 258.027 40.4805C259.586 40.4805 261.227 41.4375 261.227 44.1855V44.6777H255.84C255.895 46.25 256.811 47.1113 258.137 47.1113C259.025 47.1113 259.586 46.7285 259.859 46.2637H261.117C260.762 47.3848 259.668 48.1504 258.137 48.1504ZM255.854 43.6797H260.037C260.037 42.4355 259.244 41.5195 258.027 41.5195C256.742 41.5195 255.922 42.5312 255.854 43.6797ZM262.758 48V40.5762H263.893V41.7383H263.988C264.303 40.9453 265.014 40.4805 265.984 40.4805C266.955 40.4805 267.611 40.9453 267.967 41.7383H268.049C268.432 40.9727 269.211 40.4805 270.277 40.4805C271.604 40.4805 272.547 41.2871 272.547 43.0371V48H271.371V43.0508C271.371 41.957 270.674 41.5332 269.867 41.5332C268.828 41.5332 268.24 42.2305 268.24 43.1738V48H267.051V42.9277C267.051 42.0938 266.449 41.5332 265.602 41.5332C264.713 41.5332 263.934 42.2852 263.934 43.3652V48H262.758ZM280.75 48.1504C278.904 48.1504 277.592 46.6602 277.592 44.3086C277.592 41.957 278.904 40.4805 280.764 40.4805C282.199 40.4805 282.664 41.3555 282.91 41.752H282.992V38.1016H284.182V48H283.033V46.8652H282.91C282.65 47.2754 282.172 48.1504 280.75 48.1504ZM280.914 47.0977C282.268 47.0977 283.033 45.9492 283.033 44.2812C283.033 42.6406 282.295 41.5332 280.914 41.5332C279.492 41.5332 278.781 42.7363 278.781 44.2812C278.781 45.8672 279.506 47.0977 280.914 47.0977ZM289.254 48.1504C287.23 48.1504 285.863 46.6328 285.863 44.3223C285.863 42.0117 287.23 40.4805 289.254 40.4805C291.264 40.4805 292.617 42.0117 292.617 44.3223C292.617 46.6328 291.264 48.1504 289.254 48.1504ZM289.254 47.1113C290.744 47.1113 291.441 45.7988 291.441 44.3223C291.441 42.8457 290.744 41.5195 289.254 41.5195C287.736 41.5195 287.039 42.8457 287.039 44.3223C287.039 45.7988 287.736 47.1113 289.254 47.1113ZM295.338 38.1016V48H294.162V38.1016H295.338ZM300.246 48.1504C298.223 48.1504 296.855 46.6328 296.855 44.3223C296.855 42.0117 298.223 40.4805 300.246 40.4805C302.256 40.4805 303.609 42.0117 303.609 44.3223C303.609 46.6328 302.256 48.1504 300.246 48.1504ZM300.246 47.1113C301.736 47.1113 302.434 45.7988 302.434 44.3223C302.434 42.8457 301.736 41.5195 300.246 41.5195C298.729 41.5195 298.031 42.8457 298.031 44.3223C298.031 45.7988 298.729 47.1113 300.246 47.1113ZM305.154 48V40.5762H306.289V41.7109H306.371C306.645 40.959 307.41 40.4531 308.285 40.4531C308.463 40.4531 308.764 40.4668 308.9 40.4805V41.6699C308.818 41.6426 308.49 41.5879 308.189 41.5879C307.123 41.5879 306.33 42.3262 306.33 43.3242V48H305.154ZM310.746 47.084L309.68 50.8027H308.668L309.42 47.084H310.746ZM119.094 70V60.1016H120.27V63.752H120.365C120.625 63.3555 121.062 62.4805 122.512 62.4805C124.371 62.4805 125.684 63.957 125.684 66.3086C125.684 68.6602 124.371 70.1504 122.525 70.1504C121.104 70.1504 120.625 69.2754 120.365 68.8652H120.229V70H119.094ZM120.242 66.2812C120.242 67.9492 120.994 69.0977 122.348 69.0977C123.756 69.0977 124.494 67.8672 124.494 66.2812C124.494 64.7363 123.783 63.5332 122.348 63.5332C120.98 63.5332 120.242 64.6406 120.242 66.2812ZM128.391 60.1016V70H127.215V60.1016H128.391ZM129.908 67.8945C129.908 66.1855 131.412 65.8027 132.697 65.707C133.169 65.6729 134.372 65.6113 134.707 65.5977V64.9961C134.707 64.0527 134.146 63.5059 133.025 63.5059C132.082 63.5059 131.521 63.9434 131.357 64.5039H130.127C130.277 63.3145 131.439 62.4805 133.08 62.4805C134.051 62.4805 135.869 62.7676 135.869 65.1055V70H134.707V68.9883H134.652C134.406 69.4941 133.723 70.1777 132.438 70.1777C131.029 70.1777 129.908 69.3438 129.908 67.8945ZM131.084 67.9492C131.084 68.7285 131.74 69.125 132.643 69.125C133.969 69.125 134.707 68.2363 134.707 67.3066V66.5547L132.834 66.6914C131.768 66.7598 131.084 67.1426 131.084 67.9492ZM138.932 65.543V70H137.756V62.5762H138.891V63.7383H138.986C139.342 62.9863 140.025 62.4805 141.16 62.4805C142.664 62.4805 143.662 63.3965 143.662 65.2832V70H142.486V65.3652C142.486 64.2168 141.857 63.5332 140.805 63.5332C139.725 63.5332 138.932 64.2578 138.932 65.543ZM148.352 70.1504C146.506 70.1504 145.193 68.6602 145.193 66.3086C145.193 63.957 146.506 62.4805 148.365 62.4805C149.801 62.4805 150.266 63.3555 150.512 63.752H150.594V60.1016H151.783V70H150.635V68.8652H150.512C150.252 69.2754 149.773 70.1504 148.352 70.1504ZM148.516 69.0977C149.869 69.0977 150.635 67.9492 150.635 66.2812C150.635 64.6406 149.896 63.5332 148.516 63.5332C147.094 63.5332 146.383 64.7363 146.383 66.2812C146.383 67.8672 147.107 69.0977 148.516 69.0977ZM153.82 70V62.5762H154.996V70H153.82ZM154.408 61.3457C153.957 61.3457 153.588 61.0039 153.588 60.5664C153.588 60.1289 153.957 59.7871 154.408 59.7871C154.859 59.7871 155.242 60.1289 155.242 60.5664C155.242 61.0039 154.859 61.3457 154.408 61.3457ZM160.109 62.5762V63.5605H158.551V67.8672C158.551 68.8242 159.016 68.9746 159.521 68.9746C159.74 68.9746 160.041 68.9609 160.219 68.9473V70.041C160.041 70.0684 159.74 70.0957 159.398 70.0957C158.414 70.0957 157.361 69.4805 157.361 68.168V63.5605H156.24V62.5762H157.361V60.7988H158.551V62.5762H160.109ZM168.176 70.1504C166.07 70.1504 164.785 68.5508 164.785 66.3223C164.785 64.0664 166.125 62.4805 168.148 62.4805C169.734 62.4805 170.91 63.4102 171.102 64.8184H169.926C169.762 64.1348 169.16 63.5195 168.176 63.5195C166.85 63.5195 165.961 64.6133 165.961 66.2812C165.961 68.0039 166.822 69.0977 168.176 69.0977C169.051 69.0977 169.721 68.6328 169.926 67.8125H171.102C170.91 69.1387 169.83 70.1504 168.176 70.1504ZM175.586 70.1504C173.562 70.1504 172.195 68.6328 172.195 66.3223C172.195 64.0117 173.562 62.4805 175.586 62.4805C177.596 62.4805 178.949 64.0117 178.949 66.3223C178.949 68.6328 177.596 70.1504 175.586 70.1504ZM175.586 69.1113C177.076 69.1113 177.773 67.7988 177.773 66.3223C177.773 64.8457 177.076 63.5195 175.586 63.5195C174.068 63.5195 173.371 64.8457 173.371 66.3223C173.371 67.7988 174.068 69.1113 175.586 69.1113ZM181.67 65.543V70H180.494V62.5762H181.629V63.7383H181.725C182.08 62.9863 182.764 62.4805 183.898 62.4805C185.402 62.4805 186.4 63.3965 186.4 65.2832V70H185.225V65.3652C185.225 64.2168 184.596 63.5332 183.543 63.5332C182.463 63.5332 181.67 64.2578 181.67 65.543ZM191.295 72.9395C189.504 72.9395 188.287 72.1602 188.15 70.7793H189.381C189.545 71.5312 190.242 71.9141 191.295 71.9141C192.566 71.9141 193.346 71.3672 193.346 70.1367V68.6328H193.25C193.004 69.043 192.525 69.8906 191.09 69.8906C189.285 69.8906 187.932 68.5234 187.932 66.1855C187.932 63.9023 189.244 62.4805 191.104 62.4805C192.539 62.4805 193.004 63.3555 193.277 63.752H193.373V62.5762H194.521V70.2051C194.521 72.1191 193.1 72.9395 191.295 72.9395ZM191.254 68.8379C192.607 68.8379 193.373 67.8672 193.373 66.2266C193.373 64.6406 192.635 63.5332 191.254 63.5332C189.832 63.5332 189.121 64.7363 189.121 66.2266C189.121 67.7715 189.846 68.8379 191.254 68.8379ZM201.084 66.9512V62.5762H202.246V70H201.084V68.7422H201.002C200.646 69.4941 199.922 70.0957 198.801 70.0957C197.393 70.0957 196.395 69.1797 196.395 67.293V62.5762H197.57V67.2109C197.57 68.2773 198.24 68.9609 199.184 68.9609C200.018 68.9609 201.084 68.332 201.084 66.9512ZM207.25 70.1504C205.104 70.1504 203.777 68.6328 203.777 66.3496C203.777 64.0664 205.117 62.4805 207.141 62.4805C208.699 62.4805 210.34 63.4375 210.34 66.1855V66.6777H204.953C205.008 68.25 205.924 69.1113 207.25 69.1113C208.139 69.1113 208.699 68.7285 208.973 68.2637H210.23C209.875 69.3848 208.781 70.1504 207.25 70.1504ZM204.967 65.6797H209.15C209.15 64.4355 208.357 63.5195 207.141 63.5195C205.855 63.5195 205.035 64.5312 204.967 65.6797Z" fill="white"/>
<rect x="102.5" y="100.5" width="231" height="75" rx="15.5" fill="white" stroke="#DDDDDD"/>
<path d="M119.094 132V122.102H120.324V130.906H124.918V132H119.094ZM129.443 132.15C127.42 132.15 126.053 130.633 126.053 128.322C126.053 126.012 127.42 124.48 129.443 124.48C131.453 124.48 132.807 126.012 132.807 128.322C132.807 130.633 131.453 132.15 129.443 132.15ZM129.443 131.111C130.934 131.111 131.631 129.799 131.631 128.322C131.631 126.846 130.934 125.52 129.443 125.52C127.926 125.52 127.229 126.846 127.229 128.322C127.229 129.799 127.926 131.111 129.443 131.111ZM134.352 132V124.576H135.486V125.711H135.568C135.842 124.959 136.607 124.453 137.482 124.453C137.66 124.453 137.961 124.467 138.098 124.48V125.67C138.016 125.643 137.688 125.588 137.387 125.588C136.32 125.588 135.527 126.326 135.527 127.324V132H134.352ZM142.117 132.15C139.971 132.15 138.645 130.633 138.645 128.35C138.645 126.066 139.984 124.48 142.008 124.48C143.566 124.48 145.207 125.438 145.207 128.186V128.678H139.82C139.875 130.25 140.791 131.111 142.117 131.111C143.006 131.111 143.566 130.729 143.84 130.264H145.098C144.742 131.385 143.648 132.15 142.117 132.15ZM139.834 127.68H144.018C144.018 126.436 143.225 125.52 142.008 125.52C140.723 125.52 139.902 126.531 139.834 127.68ZM146.738 132V124.576H147.873V125.738H147.969C148.283 124.945 148.994 124.48 149.965 124.48C150.936 124.48 151.592 124.945 151.947 125.738H152.029C152.412 124.973 153.191 124.48 154.258 124.48C155.584 124.48 156.527 125.287 156.527 127.037V132H155.352V127.051C155.352 125.957 154.654 125.533 153.848 125.533C152.809 125.533 152.221 126.23 152.221 127.174V132H151.031V126.928C151.031 126.094 150.43 125.533 149.582 125.533C148.693 125.533 147.914 126.285 147.914 127.365V132H146.738ZM164.73 132.15C162.885 132.15 161.572 130.66 161.572 128.309C161.572 125.957 162.885 124.48 164.744 124.48C166.18 124.48 166.645 125.355 166.891 125.752H166.973V122.102H168.162V132H167.014V130.865H166.891C166.631 131.275 166.152 132.15 164.73 132.15ZM164.895 131.098C166.248 131.098 167.014 129.949 167.014 128.281C167.014 126.641 166.275 125.533 164.895 125.533C163.473 125.533 162.762 126.736 162.762 128.281C162.762 129.867 163.486 131.098 164.895 131.098ZM173.234 132.15C171.211 132.15 169.844 130.633 169.844 128.322C169.844 126.012 171.211 124.48 173.234 124.48C175.244 124.48 176.598 126.012 176.598 128.322C176.598 130.633 175.244 132.15 173.234 132.15ZM173.234 131.111C174.725 131.111 175.422 129.799 175.422 128.322C175.422 126.846 174.725 125.52 173.234 125.52C171.717 125.52 171.02 126.846 171.02 128.322C171.02 129.799 171.717 131.111 173.234 131.111ZM179.318 122.102V132H178.143V122.102H179.318ZM184.227 132.15C182.203 132.15 180.836 130.633 180.836 128.322C180.836 126.012 182.203 124.48 184.227 124.48C186.236 124.48 187.59 126.012 187.59 128.322C187.59 130.633 186.236 132.15 184.227 132.15ZM184.227 131.111C185.717 131.111 186.414 129.799 186.414 128.322C186.414 126.846 185.717 125.52 184.227 125.52C182.709 125.52 182.012 126.846 182.012 128.322C182.012 129.799 182.709 131.111 184.227 131.111ZM189.135 132V124.576H190.27V125.711H190.352C190.625 124.959 191.391 124.453 192.266 124.453C192.443 124.453 192.744 124.467 192.881 124.48V125.67C192.799 125.643 192.471 125.588 192.17 125.588C191.104 125.588 190.311 126.326 190.311 127.324V132H189.135ZM194.727 131.084L193.66 134.803H192.648L193.4 131.084H194.727ZM200.428 132V122.102H201.604V125.752H201.699C201.959 125.355 202.396 124.48 203.846 124.48C205.705 124.48 207.018 125.957 207.018 128.309C207.018 130.66 205.705 132.15 203.859 132.15C202.438 132.15 201.959 131.275 201.699 130.865H201.562V132H200.428ZM201.576 128.281C201.576 129.949 202.328 131.098 203.682 131.098C205.09 131.098 205.828 129.867 205.828 128.281C205.828 126.736 205.117 125.533 203.682 125.533C202.314 125.533 201.576 126.641 201.576 128.281ZM209.725 122.102V132H208.549V122.102H209.725ZM211.242 129.895C211.242 128.186 212.746 127.803 214.031 127.707C214.503 127.673 215.706 127.611 216.041 127.598V126.996C216.041 126.053 215.48 125.506 214.359 125.506C213.416 125.506 212.855 125.943 212.691 126.504H211.461C211.611 125.314 212.773 124.48 214.414 124.48C215.385 124.48 217.203 124.768 217.203 127.105V132H216.041V130.988H215.986C215.74 131.494 215.057 132.178 213.771 132.178C212.363 132.178 211.242 131.344 211.242 129.895ZM212.418 129.949C212.418 130.729 213.074 131.125 213.977 131.125C215.303 131.125 216.041 130.236 216.041 129.307V128.555L214.168 128.691C213.102 128.76 212.418 129.143 212.418 129.949ZM220.266 127.543V132H219.09V124.576H220.225V125.738H220.32C220.676 124.986 221.359 124.48 222.494 124.48C223.998 124.48 224.996 125.396 224.996 127.283V132H223.82V127.365C223.82 126.217 223.191 125.533 222.139 125.533C221.059 125.533 220.266 126.258 220.266 127.543ZM229.686 132.15C227.84 132.15 226.527 130.66 226.527 128.309C226.527 125.957 227.84 124.48 229.699 124.48C231.135 124.48 231.6 125.355 231.846 125.752H231.928V122.102H233.117V132H231.969V130.865H231.846C231.586 131.275 231.107 132.15 229.686 132.15ZM229.85 131.098C231.203 131.098 231.969 129.949 231.969 128.281C231.969 126.641 231.23 125.533 229.85 125.533C228.428 125.533 227.717 126.736 227.717 128.281C227.717 129.867 228.441 131.098 229.85 131.098ZM235.154 132V124.576H236.33V132H235.154ZM235.742 123.346C235.291 123.346 234.922 123.004 234.922 122.566C234.922 122.129 235.291 121.787 235.742 121.787C236.193 121.787 236.576 122.129 236.576 122.566C236.576 123.004 236.193 123.346 235.742 123.346ZM241.443 124.576V125.561H239.885V129.867C239.885 130.824 240.35 130.975 240.855 130.975C241.074 130.975 241.375 130.961 241.553 130.947V132.041C241.375 132.068 241.074 132.096 240.732 132.096C239.748 132.096 238.695 131.48 238.695 130.168V125.561H237.574V124.576H238.695V122.799H239.885V124.576H241.443ZM249.51 132.15C247.404 132.15 246.119 130.551 246.119 128.322C246.119 126.066 247.459 124.48 249.482 124.48C251.068 124.48 252.244 125.41 252.436 126.818H251.26C251.096 126.135 250.494 125.52 249.51 125.52C248.184 125.52 247.295 126.613 247.295 128.281C247.295 130.004 248.156 131.098 249.51 131.098C250.385 131.098 251.055 130.633 251.26 129.812H252.436C252.244 131.139 251.164 132.15 249.51 132.15ZM256.92 132.15C254.896 132.15 253.529 130.633 253.529 128.322C253.529 126.012 254.896 124.48 256.92 124.48C258.93 124.48 260.283 126.012 260.283 128.322C260.283 130.633 258.93 132.15 256.92 132.15ZM256.92 131.111C258.41 131.111 259.107 129.799 259.107 128.322C259.107 126.846 258.41 125.52 256.92 125.52C255.402 125.52 254.705 126.846 254.705 128.322C254.705 129.799 255.402 131.111 256.92 131.111ZM263.004 127.543V132H261.828V124.576H262.963V125.738H263.059C263.414 124.986 264.098 124.48 265.232 124.48C266.736 124.48 267.734 125.396 267.734 127.283V132H266.559V127.365C266.559 126.217 265.93 125.533 264.877 125.533C263.797 125.533 263.004 126.258 263.004 127.543ZM272.629 134.939C270.838 134.939 269.621 134.16 269.484 132.779H270.715C270.879 133.531 271.576 133.914 272.629 133.914C273.9 133.914 274.68 133.367 274.68 132.137V130.633H274.584C274.338 131.043 273.859 131.891 272.424 131.891C270.619 131.891 269.266 130.523 269.266 128.186C269.266 125.902 270.578 124.48 272.438 124.48C273.873 124.48 274.338 125.355 274.611 125.752H274.707V124.576H275.855V132.205C275.855 134.119 274.434 134.939 272.629 134.939ZM272.588 130.838C273.941 130.838 274.707 129.867 274.707 128.227C274.707 126.641 273.969 125.533 272.588 125.533C271.166 125.533 270.455 126.736 270.455 128.227C270.455 129.771 271.18 130.838 272.588 130.838ZM282.418 128.951V124.576H283.58V132H282.418V130.742H282.336C281.98 131.494 281.256 132.096 280.135 132.096C278.727 132.096 277.729 131.18 277.729 129.293V124.576H278.904V129.211C278.904 130.277 279.574 130.961 280.518 130.961C281.352 130.961 282.418 130.332 282.418 128.951ZM288.584 132.15C286.438 132.15 285.111 130.633 285.111 128.35C285.111 126.066 286.451 124.48 288.475 124.48C290.033 124.48 291.674 125.438 291.674 128.186V128.678H286.287C286.342 130.25 287.258 131.111 288.584 131.111C289.473 131.111 290.033 130.729 290.307 130.264H291.564C291.209 131.385 290.115 132.15 288.584 132.15ZM286.301 127.68H290.484C290.484 126.436 289.691 125.52 288.475 125.52C287.189 125.52 286.369 126.531 286.301 127.68ZM119.094 144.102H120.57L123.906 152.25H124.029L127.365 144.102H128.842V154H127.68V146.521H127.584L124.508 154H123.414L120.338 146.521H120.256V154H119.094V144.102ZM130.523 151.895C130.523 150.186 132.027 149.803 133.312 149.707C133.784 149.673 134.987 149.611 135.322 149.598V148.996C135.322 148.053 134.762 147.506 133.641 147.506C132.697 147.506 132.137 147.943 131.973 148.504H130.742C130.893 147.314 132.055 146.48 133.695 146.48C134.666 146.48 136.484 146.768 136.484 149.105V154H135.322V152.988H135.268C135.021 153.494 134.338 154.178 133.053 154.178C131.645 154.178 130.523 153.344 130.523 151.895ZM131.699 151.949C131.699 152.729 132.355 153.125 133.258 153.125C134.584 153.125 135.322 152.236 135.322 151.307V150.555L133.449 150.691C132.383 150.76 131.699 151.143 131.699 151.949ZM143.061 150.951V146.576H144.223V154H143.061V152.742H142.979C142.623 153.494 141.898 154.096 140.777 154.096C139.369 154.096 138.371 153.18 138.371 151.293V146.576H139.547V151.211C139.547 152.277 140.217 152.961 141.16 152.961C141.994 152.961 143.061 152.332 143.061 150.951ZM146.109 154V146.576H147.244V147.711H147.326C147.6 146.959 148.365 146.453 149.24 146.453C149.418 146.453 149.719 146.467 149.855 146.48V147.67C149.773 147.643 149.445 147.588 149.145 147.588C148.078 147.588 147.285 148.326 147.285 149.324V154H146.109ZM151.004 154V146.576H152.18V154H151.004ZM151.592 145.346C151.141 145.346 150.771 145.004 150.771 144.566C150.771 144.129 151.141 143.787 151.592 143.787C152.043 143.787 152.426 144.129 152.426 144.566C152.426 145.004 152.043 145.346 151.592 145.346ZM158.182 148.504C158.018 147.889 157.553 147.479 156.678 147.479C155.762 147.479 155.105 147.971 155.105 148.6C155.105 149.092 155.502 149.434 156.377 149.639L157.484 149.912C158.811 150.227 159.467 150.883 159.467 151.922C159.467 153.207 158.414 154.15 156.555 154.15C154.887 154.15 153.889 153.412 153.697 152.059H154.928C155.064 152.783 155.598 153.125 156.527 153.125C157.58 153.125 158.25 152.688 158.25 151.99C158.25 151.471 157.881 151.115 157.033 150.924L155.912 150.664C154.613 150.363 153.93 149.652 153.93 148.668C153.93 147.396 155.037 146.48 156.678 146.48C158.209 146.48 159.18 147.301 159.33 148.504H158.182ZM168.641 148.504C168.477 147.889 168.012 147.479 167.137 147.479C166.221 147.479 165.564 147.971 165.564 148.6C165.564 149.092 165.961 149.434 166.836 149.639L167.943 149.912C169.27 150.227 169.926 150.883 169.926 151.922C169.926 153.207 168.873 154.15 167.014 154.15C165.346 154.15 164.348 153.412 164.156 152.059H165.387C165.523 152.783 166.057 153.125 166.986 153.125C168.039 153.125 168.709 152.688 168.709 151.99C168.709 151.471 168.34 151.115 167.492 150.924L166.371 150.664C165.072 150.363 164.389 149.652 164.389 148.668C164.389 147.396 165.496 146.48 167.137 146.48C168.668 146.48 169.639 147.301 169.789 148.504H168.641ZM174.492 154.15C172.387 154.15 171.102 152.551 171.102 150.322C171.102 148.066 172.441 146.48 174.465 146.48C176.051 146.48 177.227 147.41 177.418 148.818H176.242C176.078 148.135 175.477 147.52 174.492 147.52C173.166 147.52 172.277 148.613 172.277 150.281C172.277 152.004 173.139 153.098 174.492 153.098C175.367 153.098 176.037 152.633 176.242 151.812H177.418C177.227 153.139 176.146 154.15 174.492 154.15ZM181.984 154.15C179.838 154.15 178.512 152.633 178.512 150.35C178.512 148.066 179.852 146.48 181.875 146.48C183.434 146.48 185.074 147.438 185.074 150.186V150.678H179.688C179.742 152.25 180.658 153.111 181.984 153.111C182.873 153.111 183.434 152.729 183.707 152.264H184.965C184.609 153.385 183.516 154.15 181.984 154.15ZM179.701 149.68H183.885C183.885 148.436 183.092 147.52 181.875 147.52C180.59 147.52 179.77 148.531 179.701 149.68ZM187.781 144.102V154H186.605V144.102H187.781ZM192.771 154.15C190.625 154.15 189.299 152.633 189.299 150.35C189.299 148.066 190.639 146.48 192.662 146.48C194.221 146.48 195.861 147.438 195.861 150.186V150.678H190.475C190.529 152.25 191.445 153.111 192.771 153.111C193.66 153.111 194.221 152.729 194.494 152.264H195.752C195.396 153.385 194.303 154.15 192.771 154.15ZM190.488 149.68H194.672C194.672 148.436 193.879 147.52 192.662 147.52C191.377 147.52 190.557 148.531 190.488 149.68ZM197.393 154V146.576H198.527V147.711H198.609C198.883 146.959 199.648 146.453 200.523 146.453C200.701 146.453 201.002 146.467 201.139 146.48V147.67C201.057 147.643 200.729 147.588 200.428 147.588C199.361 147.588 198.568 148.326 198.568 149.324V154H197.393ZM202.287 154V146.576H203.463V154H202.287ZM202.875 145.346C202.424 145.346 202.055 145.004 202.055 144.566C202.055 144.129 202.424 143.787 202.875 143.787C203.326 143.787 203.709 144.129 203.709 144.566C203.709 145.004 203.326 145.346 202.875 145.346ZM209.465 148.504C209.301 147.889 208.836 147.479 207.961 147.479C207.045 147.479 206.389 147.971 206.389 148.6C206.389 149.092 206.785 149.434 207.66 149.639L208.768 149.912C210.094 150.227 210.75 150.883 210.75 151.922C210.75 153.207 209.697 154.15 207.838 154.15C206.17 154.15 205.172 153.412 204.98 152.059H206.211C206.348 152.783 206.881 153.125 207.811 153.125C208.863 153.125 209.533 152.688 209.533 151.99C209.533 151.471 209.164 151.115 208.316 150.924L207.195 150.664C205.896 150.363 205.213 149.652 205.213 148.668C205.213 147.396 206.32 146.48 207.961 146.48C209.492 146.48 210.463 147.301 210.613 148.504H209.465ZM217.326 156.789V152.865H217.244C216.984 153.275 216.506 154.15 215.084 154.15C213.238 154.15 211.926 152.66 211.926 150.309C211.926 147.957 213.238 146.48 215.098 146.48C216.533 146.48 216.998 147.355 217.244 147.752H217.367V146.576H218.516V156.789H217.326ZM215.248 153.098C216.602 153.098 217.367 151.949 217.367 150.281C217.367 148.641 216.629 147.533 215.248 147.533C213.826 147.533 213.115 148.736 213.115 150.281C213.115 151.867 213.84 153.098 215.248 153.098ZM225.078 150.951V146.576H226.24V154H225.078V152.742H224.996C224.641 153.494 223.916 154.096 222.795 154.096C221.387 154.096 220.389 153.18 220.389 151.293V146.576H221.564V151.211C221.564 152.277 222.234 152.961 223.178 152.961C224.012 152.961 225.078 152.332 225.078 150.951ZM231.244 154.15C229.098 154.15 227.771 152.633 227.771 150.35C227.771 148.066 229.111 146.48 231.135 146.48C232.693 146.48 234.334 147.438 234.334 150.186V150.678H228.947C229.002 152.25 229.918 153.111 231.244 153.111C232.133 153.111 232.693 152.729 232.967 152.264H234.225C233.869 153.385 232.775 154.15 231.244 154.15ZM228.961 149.68H233.145C233.145 148.436 232.352 147.52 231.135 147.52C229.85 147.52 229.029 148.531 228.961 149.68Z" fill="black"/>
<g clip-path="url(#clip0_604_719)">
<g filter="url(#filter0_b_604_719)">
<path d="M0 190.2C0 172.278 0 163.317 3.48779 156.472C6.55574 150.451 11.4511 145.556 17.4723 142.488C24.3175 139 33.2783 139 51.2 139H290.8C308.722 139 317.683 139 324.528 142.488C330.549 145.556 335.444 150.451 338.512 156.472C342 163.317 342 172.278 342 190.2V293H0V190.2Z" fill="#DDDDDD" fill-opacity="0.3"/>
<path d="M51.2 139.5H290.8C299.769 139.5 306.466 139.5 311.777 139.934C317.082 140.368 320.96 141.231 324.301 142.933C330.228 145.953 335.047 150.772 338.067 156.699C339.769 160.04 340.632 163.918 341.066 169.223C341.5 174.534 341.5 181.231 341.5 190.2V292.5H0.5V190.2C0.5 181.231 0.500389 174.534 0.934313 169.223C1.36776 163.918 2.2313 160.04 3.93329 156.699C6.95331 150.772 11.7722 145.953 17.6993 142.933C21.0397 141.231 24.918 140.368 30.2232 139.934C35.5342 139.5 42.2309 139.5 51.2 139.5Z" stroke="white" stroke-opacity="0.8"/>
</g>
<rect x="21.5" y="149.5" width="299" height="75" rx="15.5" fill="white" stroke="#DDDDDD"/>
<path d="M36.1719 171.102H37.6484L40.9844 179.25H41.1074L44.4434 171.102H45.9199V181H44.7578V173.521H44.6621L41.5859 181H40.4922L37.416 173.521H37.334V181H36.1719V171.102ZM47.6016 178.895C47.6016 177.186 49.1055 176.803 50.3906 176.707C50.8623 176.673 52.0654 176.611 52.4004 176.598V175.996C52.4004 175.053 51.8398 174.506 50.7188 174.506C49.7754 174.506 49.2148 174.943 49.0508 175.504H47.8203C47.9707 174.314 49.1328 173.48 50.7734 173.48C51.7441 173.48 53.5625 173.768 53.5625 176.105V181H52.4004V179.988H52.3457C52.0996 180.494 51.416 181.178 50.1309 181.178C48.7227 181.178 47.6016 180.344 47.6016 178.895ZM48.7773 178.949C48.7773 179.729 49.4336 180.125 50.3359 180.125C51.6621 180.125 52.4004 179.236 52.4004 178.307V177.555L50.5273 177.691C49.4609 177.76 48.7773 178.143 48.7773 178.949ZM60.1387 177.951V173.576H61.3008V181H60.1387V179.742H60.0566C59.7012 180.494 58.9766 181.096 57.8555 181.096C56.4473 181.096 55.4492 180.18 55.4492 178.293V173.576H56.625V178.211C56.625 179.277 57.2949 179.961 58.2383 179.961C59.0723 179.961 60.1387 179.332 60.1387 177.951ZM63.1875 181V173.576H64.3223V174.711H64.4043C64.6777 173.959 65.4434 173.453 66.3184 173.453C66.4961 173.453 66.7969 173.467 66.9336 173.48V174.67C66.8516 174.643 66.5234 174.588 66.2227 174.588C65.1562 174.588 64.3633 175.326 64.3633 176.324V181H63.1875ZM68.082 181V173.576H69.2578V181H68.082ZM68.6699 172.346C68.2188 172.346 67.8496 172.004 67.8496 171.566C67.8496 171.129 68.2188 170.787 68.6699 170.787C69.1211 170.787 69.5039 171.129 69.5039 171.566C69.5039 172.004 69.1211 172.346 68.6699 172.346ZM75.2598 175.504C75.0957 174.889 74.6309 174.479 73.7559 174.479C72.8398 174.479 72.1836 174.971 72.1836 175.6C72.1836 176.092 72.5801 176.434 73.4551 176.639L74.5625 176.912C75.8887 177.227 76.5449 177.883 76.5449 178.922C76.5449 180.207 75.4922 181.15 73.6328 181.15C71.9648 181.15 70.9668 180.412 70.7754 179.059H72.0059C72.1426 179.783 72.6758 180.125 73.6055 180.125C74.6582 180.125 75.3281 179.688 75.3281 178.99C75.3281 178.471 74.959 178.115 74.1113 177.924L72.9902 177.664C71.6914 177.363 71.0078 176.652 71.0078 175.668C71.0078 174.396 72.1152 173.48 73.7559 173.48C75.2871 173.48 76.2578 174.301 76.4082 175.504H75.2598ZM85.7188 175.504C85.5547 174.889 85.0898 174.479 84.2148 174.479C83.2988 174.479 82.6426 174.971 82.6426 175.6C82.6426 176.092 83.0391 176.434 83.9141 176.639L85.0215 176.912C86.3477 177.227 87.0039 177.883 87.0039 178.922C87.0039 180.207 85.9512 181.15 84.0918 181.15C82.4238 181.15 81.4258 180.412 81.2344 179.059H82.4648C82.6016 179.783 83.1348 180.125 84.0645 180.125C85.1172 180.125 85.7871 179.688 85.7871 178.99C85.7871 178.471 85.418 178.115 84.5703 177.924L83.4492 177.664C82.1504 177.363 81.4668 176.652 81.4668 175.668C81.4668 174.396 82.5742 173.48 84.2148 173.48C85.7461 173.48 86.7168 174.301 86.8672 175.504H85.7188ZM91.5703 181.15C89.4648 181.15 88.1797 179.551 88.1797 177.322C88.1797 175.066 89.5195 173.48 91.543 173.48C93.1289 173.48 94.3047 174.41 94.4961 175.818H93.3203C93.1562 175.135 92.5547 174.52 91.5703 174.52C90.2441 174.52 89.3555 175.613 89.3555 177.281C89.3555 179.004 90.2168 180.098 91.5703 180.098C92.4453 180.098 93.1152 179.633 93.3203 178.812H94.4961C94.3047 180.139 93.2246 181.15 91.5703 181.15ZM99.0625 181.15C96.916 181.15 95.5898 179.633 95.5898 177.35C95.5898 175.066 96.9297 173.48 98.9531 173.48C100.512 173.48 102.152 174.438 102.152 177.186V177.678H96.7656C96.8203 179.25 97.7363 180.111 99.0625 180.111C99.9512 180.111 100.512 179.729 100.785 179.264H102.043C101.688 180.385 100.594 181.15 99.0625 181.15ZM96.7793 176.68H100.963C100.963 175.436 100.17 174.52 98.9531 174.52C97.668 174.52 96.8477 175.531 96.7793 176.68ZM104.859 171.102V181H103.684V171.102H104.859ZM109.85 181.15C107.703 181.15 106.377 179.633 106.377 177.35C106.377 175.066 107.717 173.48 109.74 173.48C111.299 173.48 112.939 174.438 112.939 177.186V177.678H107.553C107.607 179.25 108.523 180.111 109.85 180.111C110.738 180.111 111.299 179.729 111.572 179.264H112.83C112.475 180.385 111.381 181.15 109.85 181.15ZM107.566 176.68H111.75C111.75 175.436 110.957 174.52 109.74 174.52C108.455 174.52 107.635 175.531 107.566 176.68ZM114.471 181V173.576H115.605V174.711H115.688C115.961 173.959 116.727 173.453 117.602 173.453C117.779 173.453 118.08 173.467 118.217 173.48V174.67C118.135 174.643 117.807 174.588 117.506 174.588C116.439 174.588 115.646 175.326 115.646 176.324V181H114.471ZM119.365 181V173.576H120.541V181H119.365ZM119.953 172.346C119.502 172.346 119.133 172.004 119.133 171.566C119.133 171.129 119.502 170.787 119.953 170.787C120.404 170.787 120.787 171.129 120.787 171.566C120.787 172.004 120.404 172.346 119.953 172.346ZM126.543 175.504C126.379 174.889 125.914 174.479 125.039 174.479C124.123 174.479 123.467 174.971 123.467 175.6C123.467 176.092 123.863 176.434 124.738 176.639L125.846 176.912C127.172 177.227 127.828 177.883 127.828 178.922C127.828 180.207 126.775 181.15 124.916 181.15C123.248 181.15 122.25 180.412 122.059 179.059H123.289C123.426 179.783 123.959 180.125 124.889 180.125C125.941 180.125 126.611 179.688 126.611 178.99C126.611 178.471 126.242 178.115 125.395 177.924L124.273 177.664C122.975 177.363 122.291 176.652 122.291 175.668C122.291 174.396 123.398 173.48 125.039 173.48C126.57 173.48 127.541 174.301 127.691 175.504H126.543ZM134.404 183.789V179.865H134.322C134.062 180.275 133.584 181.15 132.162 181.15C130.316 181.15 129.004 179.66 129.004 177.309C129.004 174.957 130.316 173.48 132.176 173.48C133.611 173.48 134.076 174.355 134.322 174.752H134.445V173.576H135.594V183.789H134.404ZM132.326 180.098C133.68 180.098 134.445 178.949 134.445 177.281C134.445 175.641 133.707 174.533 132.326 174.533C130.904 174.533 130.193 175.736 130.193 177.281C130.193 178.867 130.918 180.098 132.326 180.098ZM142.156 177.951V173.576H143.318V181H142.156V179.742H142.074C141.719 180.494 140.994 181.096 139.873 181.096C138.465 181.096 137.467 180.18 137.467 178.293V173.576H138.643V178.211C138.643 179.277 139.312 179.961 140.256 179.961C141.09 179.961 142.156 179.332 142.156 177.951ZM148.322 181.15C146.176 181.15 144.85 179.633 144.85 177.35C144.85 175.066 146.189 173.48 148.213 173.48C149.771 173.48 151.412 174.438 151.412 177.186V177.678H146.025C146.08 179.25 146.996 180.111 148.322 180.111C149.211 180.111 149.771 179.729 150.045 179.264H151.303C150.947 180.385 149.854 181.15 148.322 181.15ZM146.039 176.68H150.223C150.223 175.436 149.43 174.52 148.213 174.52C146.928 174.52 146.107 175.531 146.039 176.68ZM157.633 171.102V181H156.457V171.102H157.633ZM162.541 181.15C160.518 181.15 159.15 179.633 159.15 177.322C159.15 175.012 160.518 173.48 162.541 173.48C164.551 173.48 165.904 175.012 165.904 177.322C165.904 179.633 164.551 181.15 162.541 181.15ZM162.541 180.111C164.031 180.111 164.729 178.799 164.729 177.322C164.729 175.846 164.031 174.52 162.541 174.52C161.023 174.52 160.326 175.846 160.326 177.322C160.326 178.799 161.023 180.111 162.541 180.111ZM167.449 181V173.576H168.584V174.711H168.666C168.939 173.959 169.705 173.453 170.58 173.453C170.758 173.453 171.059 173.467 171.195 173.48V174.67C171.113 174.643 170.785 174.588 170.484 174.588C169.418 174.588 168.625 175.326 168.625 176.324V181H167.449ZM175.215 181.15C173.068 181.15 171.742 179.633 171.742 177.35C171.742 175.066 173.082 173.48 175.105 173.48C176.664 173.48 178.305 174.438 178.305 177.186V177.678H172.918C172.973 179.25 173.889 180.111 175.215 180.111C176.104 180.111 176.664 179.729 176.938 179.264H178.195C177.84 180.385 176.746 181.15 175.215 181.15ZM172.932 176.68H177.115C177.115 175.436 176.322 174.52 175.105 174.52C173.82 174.52 173 175.531 172.932 176.68ZM179.836 181V173.576H180.971V174.738H181.066C181.381 173.945 182.092 173.48 183.062 173.48C184.033 173.48 184.689 173.945 185.045 174.738H185.127C185.51 173.973 186.289 173.48 187.355 173.48C188.682 173.48 189.625 174.287 189.625 176.037V181H188.449V176.051C188.449 174.957 187.752 174.533 186.945 174.533C185.906 174.533 185.318 175.23 185.318 176.174V181H184.129V175.928C184.129 175.094 183.527 174.533 182.68 174.533C181.791 174.533 181.012 175.285 181.012 176.365V181H179.836ZM197.828 181.15C195.982 181.15 194.67 179.66 194.67 177.309C194.67 174.957 195.982 173.48 197.842 173.48C199.277 173.48 199.742 174.355 199.988 174.752H200.07V171.102H201.26V181H200.111V179.865H199.988C199.729 180.275 199.25 181.15 197.828 181.15ZM197.992 180.098C199.346 180.098 200.111 178.949 200.111 177.281C200.111 175.641 199.373 174.533 197.992 174.533C196.57 174.533 195.859 175.736 195.859 177.281C195.859 178.867 196.584 180.098 197.992 180.098ZM206.332 181.15C204.309 181.15 202.941 179.633 202.941 177.322C202.941 175.012 204.309 173.48 206.332 173.48C208.342 173.48 209.695 175.012 209.695 177.322C209.695 179.633 208.342 181.15 206.332 181.15ZM206.332 180.111C207.822 180.111 208.52 178.799 208.52 177.322C208.52 175.846 207.822 174.52 206.332 174.52C204.814 174.52 204.117 175.846 204.117 177.322C204.117 178.799 204.814 180.111 206.332 180.111ZM212.416 171.102V181H211.24V171.102H212.416ZM217.324 181.15C215.301 181.15 213.934 179.633 213.934 177.322C213.934 175.012 215.301 173.48 217.324 173.48C219.334 173.48 220.688 175.012 220.688 177.322C220.688 179.633 219.334 181.15 217.324 181.15ZM217.324 180.111C218.814 180.111 219.512 178.799 219.512 177.322C219.512 175.846 218.814 174.52 217.324 174.52C215.807 174.52 215.109 175.846 215.109 177.322C215.109 178.799 215.807 180.111 217.324 180.111ZM222.232 181V173.576H223.367V174.711H223.449C223.723 173.959 224.488 173.453 225.363 173.453C225.541 173.453 225.842 173.467 225.979 173.48V174.67C225.896 174.643 225.568 174.588 225.268 174.588C224.201 174.588 223.408 175.326 223.408 176.324V181H222.232ZM227.824 180.084L226.758 183.803H225.746L226.498 180.084H227.824ZM233.525 181V171.102H234.701V174.752H234.797C235.057 174.355 235.494 173.48 236.943 173.48C238.803 173.48 240.115 174.957 240.115 177.309C240.115 179.66 238.803 181.15 236.957 181.15C235.535 181.15 235.057 180.275 234.797 179.865H234.66V181H233.525ZM234.674 177.281C234.674 178.949 235.426 180.098 236.779 180.098C238.188 180.098 238.926 178.867 238.926 177.281C238.926 175.736 238.215 174.533 236.779 174.533C235.412 174.533 234.674 175.641 234.674 177.281ZM242.822 171.102V181H241.646V171.102H242.822ZM244.34 178.895C244.34 177.186 245.844 176.803 247.129 176.707C247.601 176.673 248.804 176.611 249.139 176.598V175.996C249.139 175.053 248.578 174.506 247.457 174.506C246.514 174.506 245.953 174.943 245.789 175.504H244.559C244.709 174.314 245.871 173.48 247.512 173.48C248.482 173.48 250.301 173.768 250.301 176.105V181H249.139V179.988H249.084C248.838 180.494 248.154 181.178 246.869 181.178C245.461 181.178 244.34 180.344 244.34 178.895ZM245.516 178.949C245.516 179.729 246.172 180.125 247.074 180.125C248.4 180.125 249.139 179.236 249.139 178.307V177.555L247.266 177.691C246.199 177.76 245.516 178.143 245.516 178.949ZM253.363 176.543V181H252.188V173.576H253.322V174.738H253.418C253.773 173.986 254.457 173.48 255.592 173.48C257.096 173.48 258.094 174.396 258.094 176.283V181H256.918V176.365C256.918 175.217 256.289 174.533 255.236 174.533C254.156 174.533 253.363 175.258 253.363 176.543ZM262.783 181.15C260.938 181.15 259.625 179.66 259.625 177.309C259.625 174.957 260.938 173.48 262.797 173.48C264.232 173.48 264.697 174.355 264.943 174.752H265.025V171.102H266.215V181H265.066V179.865H264.943C264.684 180.275 264.205 181.15 262.783 181.15ZM262.947 180.098C264.301 180.098 265.066 178.949 265.066 177.281C265.066 175.641 264.328 174.533 262.947 174.533C261.525 174.533 260.814 175.736 260.814 177.281C260.814 178.867 261.539 180.098 262.947 180.098ZM268.252 181V173.576H269.428V181H268.252ZM268.84 172.346C268.389 172.346 268.02 172.004 268.02 171.566C268.02 171.129 268.389 170.787 268.84 170.787C269.291 170.787 269.674 171.129 269.674 171.566C269.674 172.004 269.291 172.346 268.84 172.346ZM274.541 173.576V174.561H272.982V178.867C272.982 179.824 273.447 179.975 273.953 179.975C274.172 179.975 274.473 179.961 274.65 179.947V181.041C274.473 181.068 274.172 181.096 273.83 181.096C272.846 181.096 271.793 180.48 271.793 179.168V174.561H270.672V173.576H271.793V171.799H272.982V173.576H274.541ZM39.0566 203.15C36.9512 203.15 35.666 201.551 35.666 199.322C35.666 197.066 37.0059 195.48 39.0293 195.48C40.6152 195.48 41.791 196.41 41.9824 197.818H40.8066C40.6426 197.135 40.041 196.52 39.0566 196.52C37.7305 196.52 36.8418 197.613 36.8418 199.281C36.8418 201.004 37.7031 202.098 39.0566 202.098C39.9316 202.098 40.6016 201.633 40.8066 200.812H41.9824C41.791 202.139 40.7109 203.15 39.0566 203.15ZM46.4668 203.15C44.4434 203.15 43.0762 201.633 43.0762 199.322C43.0762 197.012 44.4434 195.48 46.4668 195.48C48.4766 195.48 49.8301 197.012 49.8301 199.322C49.8301 201.633 48.4766 203.15 46.4668 203.15ZM46.4668 202.111C47.957 202.111 48.6543 200.799 48.6543 199.322C48.6543 197.846 47.957 196.52 46.4668 196.52C44.9492 196.52 44.252 197.846 44.252 199.322C44.252 200.799 44.9492 202.111 46.4668 202.111ZM52.5508 198.543V203H51.375V195.576H52.5098V196.738H52.6055C52.9609 195.986 53.6445 195.48 54.7793 195.48C56.2832 195.48 57.2812 196.396 57.2812 198.283V203H56.1055V198.365C56.1055 197.217 55.4766 196.533 54.4238 196.533C53.3438 196.533 52.5508 197.258 52.5508 198.543ZM62.1758 205.939C60.3848 205.939 59.168 205.16 59.0312 203.779H60.2617C60.4258 204.531 61.123 204.914 62.1758 204.914C63.4473 204.914 64.2266 204.367 64.2266 203.137V201.633H64.1309C63.8848 202.043 63.4062 202.891 61.9707 202.891C60.166 202.891 58.8125 201.523 58.8125 199.186C58.8125 196.902 60.125 195.48 61.9844 195.48C63.4199 195.48 63.8848 196.355 64.1582 196.752H64.2539V195.576H65.4023V203.205C65.4023 205.119 63.9805 205.939 62.1758 205.939ZM62.1348 201.838C63.4883 201.838 64.2539 200.867 64.2539 199.227C64.2539 197.641 63.5156 196.533 62.1348 196.533C60.7129 196.533 60.002 197.736 60.002 199.227C60.002 200.771 60.7266 201.838 62.1348 201.838ZM71.9648 199.951V195.576H73.127V203H71.9648V201.742H71.8828C71.5273 202.494 70.8027 203.096 69.6816 203.096C68.2734 203.096 67.2754 202.18 67.2754 200.293V195.576H68.4512V200.211C68.4512 201.277 69.1211 201.961 70.0645 201.961C70.8984 201.961 71.9648 201.332 71.9648 199.951ZM78.1309 203.15C75.9844 203.15 74.6582 201.633 74.6582 199.35C74.6582 197.066 75.998 195.48 78.0215 195.48C79.5801 195.48 81.2207 196.438 81.2207 199.186V199.678H75.834C75.8887 201.25 76.8047 202.111 78.1309 202.111C79.0195 202.111 79.5801 201.729 79.8535 201.264H81.1113C80.7559 202.385 79.6621 203.15 78.1309 203.15ZM75.8477 198.68H80.0312C80.0312 197.436 79.2383 196.52 78.0215 196.52C76.7363 196.52 75.916 197.531 75.8477 198.68Z" fill="black"/>
<rect x="21.5" y="233.5" width="299" height="75" rx="15.5" fill="white" stroke="#DDDDDD"/>
<path d="M36.1719 265V255.102H39.5352C41.8594 255.102 42.9121 256.482 42.9121 258.246C42.9121 259.996 41.8594 261.404 39.5488 261.404H37.4023V265H36.1719ZM37.4023 260.311H39.4941C41.0664 260.311 41.6953 259.422 41.6953 258.246C41.6953 257.057 41.0664 256.195 39.4805 256.195H37.4023V260.311ZM45.6602 260.543V265H44.4844V255.102H45.6602V258.738H45.7559C46.0977 257.973 46.7676 257.48 47.9434 257.48C49.4609 257.48 50.4727 258.383 50.4727 260.283V265H49.2969V260.365C49.2969 259.203 48.6543 258.533 47.5879 258.533C46.4805 258.533 45.6602 259.258 45.6602 260.543ZM52.0039 262.895C52.0039 261.186 53.5078 260.803 54.793 260.707C55.2646 260.673 56.4678 260.611 56.8027 260.598V259.996C56.8027 259.053 56.2422 258.506 55.1211 258.506C54.1777 258.506 53.6172 258.943 53.4531 259.504H52.2227C52.373 258.314 53.5352 257.48 55.1758 257.48C56.1465 257.48 57.9648 257.768 57.9648 260.105V265H56.8027V263.988H56.748C56.502 264.494 55.8184 265.178 54.5332 265.178C53.125 265.178 52.0039 264.344 52.0039 262.895ZM53.1797 262.949C53.1797 263.729 53.8359 264.125 54.7383 264.125C56.0645 264.125 56.8027 263.236 56.8027 262.307V261.555L54.9297 261.691C53.8633 261.76 53.1797 262.143 53.1797 262.949ZM63.9805 259.504C63.8164 258.889 63.3516 258.479 62.4766 258.479C61.5605 258.479 60.9043 258.971 60.9043 259.6C60.9043 260.092 61.3008 260.434 62.1758 260.639L63.2832 260.912C64.6094 261.227 65.2656 261.883 65.2656 262.922C65.2656 264.207 64.2129 265.15 62.3535 265.15C60.6855 265.15 59.6875 264.412 59.4961 263.059H60.7266C60.8633 263.783 61.3965 264.125 62.3262 264.125C63.3789 264.125 64.0488 263.688 64.0488 262.99C64.0488 262.471 63.6797 262.115 62.832 261.924L61.7109 261.664C60.4121 261.363 59.7285 260.652 59.7285 259.668C59.7285 258.396 60.8359 257.48 62.4766 257.48C64.0078 257.48 64.9785 258.301 65.1289 259.504H63.9805ZM69.9141 265.15C67.7676 265.15 66.4414 263.633 66.4414 261.35C66.4414 259.066 67.7812 257.48 69.8047 257.48C71.3633 257.48 73.0039 258.438 73.0039 261.186V261.678H67.6172C67.6719 263.25 68.5879 264.111 69.9141 264.111C70.8027 264.111 71.3633 263.729 71.6367 263.264H72.8945C72.5391 264.385 71.4453 265.15 69.9141 265.15ZM67.6309 260.68H71.8145C71.8145 259.436 71.0215 258.52 69.8047 258.52C68.5195 258.52 67.6992 259.531 67.6309 260.68ZM75.7109 255.102V265H74.5352V255.102H75.7109ZM78.7598 255.102V265H77.584V255.102H78.7598ZM85.3223 261.951V257.576H86.4844V265H85.3223V263.742H85.2402C84.8848 264.494 84.1602 265.096 83.0391 265.096C81.6309 265.096 80.6328 264.18 80.6328 262.293V257.576H81.8086V262.211C81.8086 263.277 82.4785 263.961 83.4219 263.961C84.2559 263.961 85.3223 263.332 85.3223 261.951ZM92.5 259.504C92.3359 258.889 91.8711 258.479 90.9961 258.479C90.0801 258.479 89.4238 258.971 89.4238 259.6C89.4238 260.092 89.8203 260.434 90.6953 260.639L91.8027 260.912C93.1289 261.227 93.7852 261.883 93.7852 262.922C93.7852 264.207 92.7324 265.15 90.873 265.15C89.2051 265.15 88.207 264.412 88.0156 263.059H89.2461C89.3828 263.783 89.916 264.125 90.8457 264.125C91.8984 264.125 92.5684 263.688 92.5684 262.99C92.5684 262.471 92.1992 262.115 91.3516 261.924L90.2305 261.664C88.9316 261.363 88.248 260.652 88.248 259.668C88.248 258.396 89.3555 257.48 90.9961 257.48C92.5273 257.48 93.498 258.301 93.6484 259.504H92.5ZM98.8301 267.789V257.576H99.9648V258.752H100.102C100.348 258.355 100.812 257.48 102.248 257.48C104.107 257.48 105.406 258.957 105.406 261.309C105.406 263.66 104.107 265.15 102.262 265.15C100.84 265.15 100.348 264.275 100.102 263.865H100.006V267.789H98.8301ZM99.9785 261.281C99.9785 262.949 100.73 264.098 102.098 264.098C103.506 264.098 104.23 262.867 104.23 261.281C104.23 259.736 103.52 258.533 102.098 258.533C100.703 258.533 99.9785 259.641 99.9785 261.281ZM108.113 260.543V265H106.938V255.102H108.113V258.738H108.209C108.551 257.973 109.221 257.48 110.396 257.48C111.914 257.48 112.926 258.383 112.926 260.283V265H111.75V260.365C111.75 259.203 111.107 258.533 110.041 258.533C108.934 258.533 108.113 259.258 108.113 260.543ZM114.457 262.895C114.457 261.186 115.961 260.803 117.246 260.707C117.718 260.673 118.921 260.611 119.256 260.598V259.996C119.256 259.053 118.695 258.506 117.574 258.506C116.631 258.506 116.07 258.943 115.906 259.504H114.676C114.826 258.314 115.988 257.48 117.629 257.48C118.6 257.48 120.418 257.768 120.418 260.105V265H119.256V263.988H119.201C118.955 264.494 118.271 265.178 116.986 265.178C115.578 265.178 114.457 264.344 114.457 262.895ZM115.633 262.949C115.633 263.729 116.289 264.125 117.191 264.125C118.518 264.125 119.256 263.236 119.256 262.307V261.555L117.383 261.691C116.316 261.76 115.633 262.143 115.633 262.949ZM122.305 265V257.576H123.439V258.711H123.521C123.795 257.959 124.561 257.453 125.436 257.453C125.613 257.453 125.914 257.467 126.051 257.48V258.67C125.969 258.643 125.641 258.588 125.34 258.588C124.273 258.588 123.48 259.326 123.48 260.324V265H122.305ZM130.07 265.15C127.924 265.15 126.598 263.633 126.598 261.35C126.598 259.066 127.938 257.48 129.961 257.48C131.52 257.48 133.16 258.438 133.16 261.186V261.678H127.773C127.828 263.25 128.744 264.111 130.07 264.111C130.959 264.111 131.52 263.729 131.793 263.264H133.051C132.695 264.385 131.602 265.15 130.07 265.15ZM127.787 260.68H131.971C131.971 259.436 131.178 258.52 129.961 258.52C128.676 258.52 127.855 259.531 127.787 260.68ZM137.932 257.576V258.561H136.373V262.867C136.373 263.824 136.838 263.975 137.344 263.975C137.562 263.975 137.863 263.961 138.041 263.947V265.041C137.863 265.068 137.562 265.096 137.221 265.096C136.236 265.096 135.184 264.48 135.184 263.168V258.561H134.062V257.576H135.184V255.799H136.373V257.576H137.932ZM139.449 265V257.576H140.584V258.711H140.666C140.939 257.959 141.705 257.453 142.58 257.453C142.758 257.453 143.059 257.467 143.195 257.48V258.67C143.113 258.643 142.785 258.588 142.484 258.588C141.418 258.588 140.625 259.326 140.625 260.324V265H139.449ZM143.975 262.895C143.975 261.186 145.479 260.803 146.764 260.707C147.235 260.673 148.438 260.611 148.773 260.598V259.996C148.773 259.053 148.213 258.506 147.092 258.506C146.148 258.506 145.588 258.943 145.424 259.504H144.193C144.344 258.314 145.506 257.48 147.146 257.48C148.117 257.48 149.936 257.768 149.936 260.105V265H148.773V263.988H148.719C148.473 264.494 147.789 265.178 146.504 265.178C145.096 265.178 143.975 264.344 143.975 262.895ZM145.15 262.949C145.15 263.729 145.807 264.125 146.709 264.125C148.035 264.125 148.773 263.236 148.773 262.307V261.555L146.9 261.691C145.834 261.76 145.15 262.143 145.15 262.949ZM158.453 265.15C156.307 265.15 154.98 263.633 154.98 261.35C154.98 259.066 156.32 257.48 158.344 257.48C159.902 257.48 161.543 258.438 161.543 261.186V261.678H156.156C156.211 263.25 157.127 264.111 158.453 264.111C159.342 264.111 159.902 263.729 160.176 263.264H161.434C161.078 264.385 159.984 265.15 158.453 265.15ZM156.17 260.68H160.354C160.354 259.436 159.561 258.52 158.344 258.52C157.059 258.52 156.238 259.531 156.17 260.68ZM164.25 260.543V265H163.074V257.576H164.209V258.738H164.305C164.66 257.986 165.344 257.48 166.479 257.48C167.982 257.48 168.98 258.396 168.98 260.283V265H167.805V260.365C167.805 259.217 167.176 258.533 166.123 258.533C165.043 258.533 164.25 259.258 164.25 260.543ZM170.867 265V257.576H172.043V265H170.867ZM171.455 256.346C171.004 256.346 170.635 256.004 170.635 255.566C170.635 255.129 171.004 254.787 171.455 254.787C171.906 254.787 172.289 255.129 172.289 255.566C172.289 256.004 171.906 256.346 171.455 256.346ZM173.916 265V257.576H175.051V258.738H175.146C175.461 257.945 176.172 257.48 177.143 257.48C178.113 257.48 178.77 257.945 179.125 258.738H179.207C179.59 257.973 180.369 257.48 181.436 257.48C182.762 257.48 183.705 258.287 183.705 260.037V265H182.529V260.051C182.529 258.957 181.832 258.533 181.025 258.533C179.986 258.533 179.398 259.23 179.398 260.174V265H178.209V259.928C178.209 259.094 177.607 258.533 176.76 258.533C175.871 258.533 175.092 259.285 175.092 260.365V265H173.916ZM189.105 267.789V257.576H190.24V258.752H190.377C190.623 258.355 191.088 257.48 192.523 257.48C194.383 257.48 195.682 258.957 195.682 261.309C195.682 263.66 194.383 265.15 192.537 265.15C191.115 265.15 190.623 264.275 190.377 263.865H190.281V267.789H189.105ZM190.254 261.281C190.254 262.949 191.006 264.098 192.373 264.098C193.781 264.098 194.506 262.867 194.506 261.281C194.506 259.736 193.795 258.533 192.373 258.533C190.979 258.533 190.254 259.641 190.254 261.281ZM201.902 261.951V257.576H203.064V265H201.902V263.742H201.82C201.465 264.494 200.74 265.096 199.619 265.096C198.211 265.096 197.213 264.18 197.213 262.293V257.576H198.389V262.211C198.389 263.277 199.059 263.961 200.002 263.961C200.836 263.961 201.902 263.332 201.902 261.951ZM204.951 265V257.576H206.086V258.711H206.168C206.441 257.959 207.207 257.453 208.082 257.453C208.26 257.453 208.561 257.467 208.697 257.48V258.67C208.615 258.643 208.287 258.588 207.986 258.588C206.92 258.588 206.127 259.326 206.127 260.324V265H204.951ZM214.535 261.951V257.576H215.697V265H214.535V263.742H214.453C214.098 264.494 213.373 265.096 212.252 265.096C210.844 265.096 209.846 264.18 209.846 262.293V257.576H211.021V262.211C211.021 263.277 211.691 263.961 212.635 263.961C213.469 263.961 214.535 263.332 214.535 261.951ZM221.713 259.504C221.549 258.889 221.084 258.479 220.209 258.479C219.293 258.479 218.637 258.971 218.637 259.6C218.637 260.092 219.033 260.434 219.908 260.639L221.016 260.912C222.342 261.227 222.998 261.883 222.998 262.922C222.998 264.207 221.945 265.15 220.086 265.15C218.418 265.15 217.42 264.412 217.229 263.059H218.459C218.596 263.783 219.129 264.125 220.059 264.125C221.111 264.125 221.781 263.688 221.781 262.99C221.781 262.471 221.412 262.115 220.564 261.924L219.443 261.664C218.145 261.363 217.461 260.652 217.461 259.668C217.461 258.396 218.568 257.48 220.209 257.48C221.74 257.48 222.711 258.301 222.861 259.504H221.713ZM226.074 264.084L225.008 267.803H223.996L224.748 264.084H226.074ZM234.742 265.15C232.596 265.15 231.27 263.633 231.27 261.35C231.27 259.066 232.609 257.48 234.633 257.48C236.191 257.48 237.832 258.438 237.832 261.186V261.678H232.445C232.5 263.25 233.416 264.111 234.742 264.111C235.631 264.111 236.191 263.729 236.465 263.264H237.723C237.367 264.385 236.273 265.15 234.742 265.15ZM232.459 260.68H236.643C236.643 259.436 235.85 258.52 234.633 258.52C233.348 258.52 232.527 259.531 232.459 260.68ZM244.053 261.951V257.576H245.215V265H244.053V263.742H243.971C243.615 264.494 242.891 265.096 241.77 265.096C240.361 265.096 239.363 264.18 239.363 262.293V257.576H240.539V262.211C240.539 263.277 241.209 263.961 242.152 263.961C242.986 263.961 244.053 263.332 244.053 261.951ZM39.3438 279.576V280.561H37.7031V287H36.5137V280.561H35.3242V279.576H36.5137V278.564C36.5137 277.361 37.3203 276.637 38.6328 276.637C38.9199 276.637 39.2617 276.678 39.5078 276.719V277.771C39.2617 277.73 39.043 277.717 38.8926 277.717C38.0723 277.717 37.7031 278.059 37.7031 278.824V279.576H39.3438ZM40.1641 284.895C40.1641 283.186 41.668 282.803 42.9531 282.707C43.4248 282.673 44.6279 282.611 44.9629 282.598V281.996C44.9629 281.053 44.4023 280.506 43.2812 280.506C42.3379 280.506 41.7773 280.943 41.6133 281.504H40.3828C40.5332 280.314 41.6953 279.48 43.3359 279.48C44.3066 279.48 46.125 279.768 46.125 282.105V287H44.9629V285.988H44.9082C44.6621 286.494 43.9785 287.178 42.6934 287.178C41.2852 287.178 40.1641 286.344 40.1641 284.895ZM41.3398 284.949C41.3398 285.729 41.9961 286.125 42.8984 286.125C44.2246 286.125 44.9629 285.236 44.9629 284.307V283.555L43.0898 283.691C42.0234 283.76 41.3398 284.143 41.3398 284.949ZM51.0469 287.15C48.9414 287.15 47.6562 285.551 47.6562 283.322C47.6562 281.066 48.9961 279.48 51.0195 279.48C52.6055 279.48 53.7812 280.41 53.9727 281.818H52.7969C52.6328 281.135 52.0312 280.52 51.0469 280.52C49.7207 280.52 48.832 281.613 48.832 283.281C48.832 285.004 49.6934 286.098 51.0469 286.098C51.9219 286.098 52.5918 285.633 52.7969 284.812H53.9727C53.7812 286.139 52.7012 287.15 51.0469 287.15ZM55.4219 287V279.576H56.5977V287H55.4219ZM56.0098 278.346C55.5586 278.346 55.1895 278.004 55.1895 277.566C55.1895 277.129 55.5586 276.787 56.0098 276.787C56.4609 276.787 56.8438 277.129 56.8438 277.566C56.8438 278.004 56.4609 278.346 56.0098 278.346ZM59.6465 277.102V287H58.4707V277.102H59.6465ZM61.5195 287V279.576H62.6953V287H61.5195ZM62.1074 278.346C61.6562 278.346 61.2871 278.004 61.2871 277.566C61.2871 277.129 61.6562 276.787 62.1074 276.787C62.5586 276.787 62.9414 277.129 62.9414 277.566C62.9414 278.004 62.5586 278.346 62.1074 278.346ZM68.6973 281.504C68.5332 280.889 68.0684 280.479 67.1934 280.479C66.2773 280.479 65.6211 280.971 65.6211 281.6C65.6211 282.092 66.0176 282.434 66.8926 282.639L68 282.912C69.3262 283.227 69.9824 283.883 69.9824 284.922C69.9824 286.207 68.9297 287.15 67.0703 287.15C65.4023 287.15 64.4043 286.412 64.2129 285.059H65.4434C65.5801 285.783 66.1133 286.125 67.043 286.125C68.0957 286.125 68.7656 285.688 68.7656 284.99C68.7656 284.471 68.3965 284.115 67.5488 283.924L66.4277 283.664C65.1289 283.363 64.4453 282.652 64.4453 281.668C64.4453 280.396 65.5527 279.48 67.1934 279.48C68.7246 279.48 69.6953 280.301 69.8457 281.504H68.6973ZM71.5137 287V279.576H72.6895V287H71.5137ZM72.1016 278.346C71.6504 278.346 71.2812 278.004 71.2812 277.566C71.2812 277.129 71.6504 276.787 72.1016 276.787C72.5527 276.787 72.9355 277.129 72.9355 277.566C72.9355 278.004 72.5527 278.346 72.1016 278.346ZM78.6914 281.504C78.5273 280.889 78.0625 280.479 77.1875 280.479C76.2715 280.479 75.6152 280.971 75.6152 281.6C75.6152 282.092 76.0117 282.434 76.8867 282.639L77.9941 282.912C79.3203 283.227 79.9766 283.883 79.9766 284.922C79.9766 286.207 78.9238 287.15 77.0645 287.15C75.3965 287.15 74.3984 286.412 74.207 285.059H75.4375C75.5742 285.783 76.1074 286.125 77.0371 286.125C78.0898 286.125 78.7598 285.688 78.7598 284.99C78.7598 284.471 78.3906 284.115 77.543 283.924L76.4219 283.664C75.123 283.363 74.4395 282.652 74.4395 281.668C74.4395 280.396 75.5469 279.48 77.1875 279.48C78.7188 279.48 79.6895 280.301 79.8398 281.504H78.6914ZM88.2617 279.576V280.561H86.7031V284.867C86.7031 285.824 87.168 285.975 87.6738 285.975C87.8926 285.975 88.1934 285.961 88.3711 285.947V287.041C88.1934 287.068 87.8926 287.096 87.5508 287.096C86.5664 287.096 85.5137 286.48 85.5137 285.168V280.561H84.3926V279.576H85.5137V277.799H86.7031V279.576H88.2617ZM92.7324 287.15C90.709 287.15 89.3418 285.633 89.3418 283.322C89.3418 281.012 90.709 279.48 92.7324 279.48C94.7422 279.48 96.0957 281.012 96.0957 283.322C96.0957 285.633 94.7422 287.15 92.7324 287.15ZM92.7324 286.111C94.2227 286.111 94.9199 284.799 94.9199 283.322C94.9199 281.846 94.2227 280.52 92.7324 280.52C91.2148 280.52 90.5176 281.846 90.5176 283.322C90.5176 284.799 91.2148 286.111 92.7324 286.111ZM97.6406 287V279.576H98.7754V280.711H98.8574C99.1309 279.959 99.8965 279.453 100.771 279.453C100.949 279.453 101.25 279.467 101.387 279.48V280.67C101.305 280.643 100.977 280.588 100.676 280.588C99.6094 280.588 98.8164 281.326 98.8164 282.324V287H97.6406ZM106.24 279.576V280.561H104.682V284.867C104.682 285.824 105.146 285.975 105.652 285.975C105.871 285.975 106.172 285.961 106.35 285.947V287.041C106.172 287.068 105.871 287.096 105.529 287.096C104.545 287.096 103.492 286.48 103.492 285.168V280.561H102.371V279.576H103.492V277.799H104.682V279.576H106.24ZM110.711 287.15C108.688 287.15 107.32 285.633 107.32 283.322C107.32 281.012 108.688 279.48 110.711 279.48C112.721 279.48 114.074 281.012 114.074 283.322C114.074 285.633 112.721 287.15 110.711 287.15ZM110.711 286.111C112.201 286.111 112.898 284.799 112.898 283.322C112.898 281.846 112.201 280.52 110.711 280.52C109.193 280.52 108.496 281.846 108.496 283.322C108.496 284.799 109.193 286.111 110.711 286.111ZM115.619 287V279.576H116.754V280.711H116.836C117.109 279.959 117.875 279.453 118.75 279.453C118.928 279.453 119.229 279.467 119.365 279.48V280.67C119.283 280.643 118.955 280.588 118.654 280.588C117.588 280.588 116.795 281.326 116.795 282.324V287H115.619ZM120.5 287.082C120.021 287.082 119.611 286.686 119.625 286.193C119.611 285.715 120.021 285.318 120.5 285.318C120.979 285.318 121.375 285.715 121.375 286.193C121.375 286.686 120.979 287.082 120.5 287.082Z" fill="black"/>
</g>
<g clip-path="url(#clip1_604_719)">
<path d="M81.666 324H68.3327C66.866 324 65.6793 325.2 65.6793 326.667L65.666 348L74.9993 344L84.3327 348V326.667C84.3327 325.2 83.1327 324 81.666 324Z" fill="#476DE0"/>
</g>
<path d="M53.6499 355.32V364.87H52.8442V359.864H51.437V364.376H50.6636V355.535H51.437V359.166H52.8442V355.32H53.6499ZM49.4175 356.491V357.189H46.6782V361.787C47.9941 361.782 48.9072 361.733 49.9653 361.519L50.0405 362.228C48.8911 362.464 47.9136 362.507 46.4526 362.507H45.8403V356.491H49.4175ZM62.4048 355.32V359.392H63.9302V360.101H62.4048V364.87H61.5562V355.32H62.4048ZM54.8745 362.324C55.6533 362.324 56.561 362.324 57.5063 362.292V361.229C56.3945 361.105 55.6694 360.455 55.6802 359.51C55.6694 358.436 56.5825 357.737 57.936 357.737C59.2681 357.737 60.1919 358.436 60.2026 359.51C60.1919 360.455 59.4561 361.105 58.355 361.239V362.26C59.2466 362.217 60.1436 362.147 60.9761 362.023L61.0298 362.668C58.9458 363.022 56.6899 363.044 55.0142 363.044L54.8745 362.324ZM60.8042 356.491V357.179H55.0464V356.491H57.5063V355.342H58.355V356.491H60.8042ZM57.936 358.393C57.0552 358.393 56.4644 358.844 56.4644 359.51C56.4644 360.176 57.0552 360.605 57.936 360.595C58.8062 360.605 59.397 360.176 59.397 359.51C59.397 358.844 58.8062 358.393 57.936 358.393ZM75.1772 355.32V364.892H74.3286V359.499H72.2339V358.801H74.3286V355.32H75.1772ZM70.5688 358.156C70.5688 359.746 71.7075 361.476 73.104 362.109L72.5991 362.786C71.5088 362.254 70.5903 361.1 70.1606 359.768C69.7202 361.18 68.7803 362.405 67.6899 362.979L67.1743 362.324C68.5601 361.647 69.7095 359.854 69.7202 358.156V357.007H67.5396V356.309H72.7603V357.007H70.5688V358.156ZM80.0005 357.136C80.0005 358.382 80.9351 359.499 82.3423 359.961L81.9448 360.627C80.8438 360.267 80.0112 359.504 79.603 358.543C79.1895 359.639 78.3086 360.493 77.1646 360.906L76.7349 360.229C78.1636 359.746 79.1626 358.511 79.1733 357.136V356.728H76.9927V356.029H82.1489V356.728H80.0005V357.136ZM84.2329 355.32V357.759H85.6724V358.468H84.2329V361.089H83.395V355.32H84.2329ZM81.1714 361.347C83.1372 361.347 84.3188 361.991 84.3188 363.087C84.3188 364.204 83.1372 364.849 81.1714 364.849C79.2056 364.849 78.0024 364.204 78.0024 363.087C78.0024 361.991 79.2056 361.347 81.1714 361.347ZM81.1714 362.023C79.7319 362.023 78.8403 362.421 78.8511 363.087C78.8403 363.774 79.7319 364.172 81.1714 364.172C82.6216 364.172 83.5024 363.774 83.5024 363.087C83.5024 362.421 82.6216 362.023 81.1714 362.023ZM93.6646 355.32V359.263H95.2651V359.961H93.6646V364.87H92.8267V355.32H93.6646ZM91.9028 356.856V357.555H86.2202V356.856H88.6802V355.438H89.5181V356.856H91.9028ZM89.1099 358.35C90.4634 358.35 91.4409 359.252 91.4517 360.541C91.4409 361.83 90.4634 362.732 89.1099 362.732C87.7456 362.732 86.7573 361.83 86.7681 360.541C86.7573 359.252 87.7456 358.35 89.1099 358.35ZM89.1099 359.059C88.2183 359.059 87.563 359.682 87.5737 360.541C87.563 361.411 88.2183 362.023 89.1099 362.013C89.9907 362.023 90.6353 361.411 90.646 360.541C90.6353 359.682 89.9907 359.059 89.1099 359.059ZM103.676 355.32V364.87H102.828V355.32H103.676ZM100.851 356.362C100.84 359.112 99.562 361.54 96.3608 363.076L95.8989 362.389C98.4824 361.164 99.7983 359.333 99.9917 357.05H96.3394V356.362H100.851Z" fill="#476DE0"/>
<g clip-path="url(#clip2_604_719)">
<path d="M181.666 322.667H160.333C158.866 322.667 157.666 323.867 157.666 325.333V349.333L162.999 344H181.666C183.133 344 184.333 342.8 184.333 341.333V325.333C184.333 323.867 183.133 322.667 181.666 322.667ZM181.666 341.333H162.999L160.333 344V325.333H181.666V341.333Z" fill="#999999"/>
<path d="M172.778 330.075L173.863 332.127L174.97 330.075H176.613L174.905 332.986L176.656 335.908H175.023L173.863 333.878L172.725 335.908H171.07L172.811 332.986L171.135 330.075H172.778Z" fill="#999999"/>
<path d="M167.879 336.026C166.096 336.026 165 334.866 165 333.019C165 331.214 166.106 330 167.814 330C169.351 330 170.554 330.967 170.554 332.954V333.405H166.568C166.568 334.286 167.095 334.834 167.911 334.834C168.448 334.834 168.835 334.598 168.996 334.243H170.511C170.285 335.317 169.318 336.026 167.879 336.026ZM166.568 332.406H169.05C169.05 331.697 168.556 331.192 167.847 331.192C167.116 331.192 166.595 331.735 166.568 332.406Z" fill="#999999"/>
</g>
<path d="M147.496 355.32V359.102H149.097V359.811H147.496V364.892H146.658V355.32H147.496ZM144.982 356.255V356.953H141.362V361.787C143.092 361.787 144.316 361.707 145.734 361.443L145.842 362.174C144.349 362.442 143.092 362.496 141.276 362.496H140.524V356.255H144.982ZM158.346 360.616V361.314H149.602V360.616H158.346ZM157.422 363.957V364.666H150.762V362.066H151.61V363.957H157.422ZM157.218 355.653V358.006H151.578V359.069H157.422V359.735H150.74V357.372H156.369V356.33H150.708V355.653H157.218ZM170.624 363.001V363.699H161.88V363.001H164.318V360.724H162.675V360.025H164.168V356.91H162.653V356.212H169.786V356.91H168.271V360.025H169.765V360.724H168.121V363.001H170.624ZM165.006 360.025H167.444V356.91H165.006V360.025ZM165.167 363.001H167.283V360.724H165.167V363.001ZM179.304 355.331V362.614H178.455V360.562H176.801V359.875H178.455V358.575H176.801V357.877H178.455V355.331H179.304ZM176.801 356.502V357.189H171.397V356.502H173.718V355.32H174.556V356.502H176.801ZM174.126 357.716C175.404 357.716 176.307 358.446 176.307 359.542C176.307 360.627 175.404 361.368 174.126 361.368C172.848 361.368 171.956 360.627 171.967 359.542C171.956 358.446 172.848 357.716 174.126 357.716ZM174.126 358.382C173.31 358.393 172.751 358.854 172.751 359.542C172.751 360.229 173.31 360.691 174.126 360.691C174.942 360.691 175.501 360.229 175.512 359.542C175.501 358.854 174.942 358.393 174.126 358.382ZM179.519 363.957V364.666H173.127V361.97H173.976V363.957H179.519ZM192.398 362.947V363.646H183.654V362.947H187.586V360.885H184.686V355.997H185.534V357.727H190.497V355.997H191.324V360.885H188.413V362.947H192.398ZM185.534 360.197H190.497V358.414H185.534V360.197ZM201.057 355.32V364.87H200.208V355.32H201.057ZM198.231 356.362C198.221 359.112 196.942 361.54 193.741 363.076L193.279 362.389C195.863 361.164 197.179 359.333 197.372 357.05H193.72V356.362H198.231Z" fill="#999999"/>
<g clip-path="url(#clip3_604_719)">
<path d="M256.334 322.667H277.667C279.134 322.667 280.334 323.867 280.334 325.333V349.333L275.001 344H256.334C254.867 344 253.667 342.8 253.667 341.333V325.333C253.667 323.867 254.867 322.667 256.334 322.667ZM256.334 341.333H275.001L277.667 344V325.333H256.334V341.333Z" fill="#999999"/>
<path d="M266.068 337.272V334.073H262.869V332.194H266.068V328.995H267.93V332.194H271.146V334.073H267.93V337.272H266.068Z" fill="#999999"/>
</g>
<path d="M244.27 355.32V364.87H243.464V359.864H242.057V364.376H241.283V355.535H242.057V359.166H243.464V355.32H244.27ZM240.037 356.491V357.189H237.298V361.787C238.614 361.782 239.527 361.733 240.585 361.519L240.66 362.228C239.511 362.464 238.533 362.507 237.072 362.507H236.46V356.491H240.037ZM253.078 355.32V357.565H254.518V358.274H253.078V360.412H252.24V355.32H253.078ZM250.296 355.954V356.652H246.901V359.381C248.819 359.381 249.909 359.322 251.188 359.059L251.295 359.757C249.952 360.025 248.813 360.09 246.805 360.09H246.063V355.954H250.296ZM247.868 360.928V362.12H252.24V360.928H253.078V364.709H247.03V360.928H247.868ZM247.868 364.011H252.24V362.797H247.868V364.011ZM266.065 355.32V364.87H265.249V355.32H266.065ZM264.164 355.524V364.387H263.358V361.25H261.833C261.5 362.206 260.866 362.765 260.05 362.765C258.804 362.765 257.998 361.476 257.998 359.445C257.998 357.415 258.804 356.126 260.05 356.126C260.866 356.126 261.5 356.685 261.833 357.641H263.358V355.524H264.164ZM260.05 356.921C259.266 356.921 258.782 357.888 258.782 359.445C258.782 360.992 259.266 361.97 260.05 361.959C260.823 361.97 261.328 360.992 261.328 359.445C261.328 357.888 260.823 356.921 260.05 356.921ZM262.016 358.339C262.08 358.677 262.112 359.048 262.112 359.445C262.112 359.837 262.08 360.208 262.026 360.541H263.358V358.339H262.016ZM270.781 357.888C270.771 359.628 271.963 361.39 273.37 362.023L272.854 362.689C271.77 362.158 270.83 361.035 270.373 359.671C269.927 361.116 268.987 362.319 267.87 362.883L267.333 362.174C268.751 361.519 269.933 359.703 269.943 357.888V356.147H270.781V357.888ZM275.261 355.32V364.892H274.412V355.32H275.261ZM288.398 362.947V363.646H279.654V362.947H283.586V360.885H280.686V355.997H281.534V357.727H286.497V355.997H287.324V360.885H284.413V362.947H288.398ZM281.534 360.197H286.497V358.414H281.534V360.197ZM297.057 355.32V364.87H296.208V355.32H297.057ZM294.231 356.362C294.221 359.112 292.942 361.54 289.741 363.076L289.279 362.389C291.863 361.164 293.179 359.333 293.372 357.05H289.72V356.362H294.231Z" fill="#999999"/>
<path d="M83.7143 47H92.2857C93.2286 47 93.9914 47.75 93.9914 48.6667L94 62L88 59.5L82 62V48.6667C82 47.75 82.7714 47 83.7143 47Z" fill="#DDDDDD"/>
<defs>
<filter id="filter0_b_604_719" x="-20" y="119" width="382" height="194" filterUnits="userSpaceOnUse" color-interpolation-filters="sRGB">
<feFlood flood-opacity="0" result="BackgroundImageFix"/>
<feGaussianBlur in="BackgroundImageFix" stdDeviation="10"/>
<feComposite in2="SourceAlpha" operator="in" result="effect1_backgroundBlur_604_719"/>
<feBlend mode="normal" in="SourceGraphic" in2="effect1_backgroundBlur_604_719" result="shape"/>
</filter>
<clipPath id="clip0_604_719">
<rect width="342" height="153" fill="white" transform="translate(0 139)"/>
</clipPath>
<clipPath id="clip1_604_719">
<rect width="32" height="32" fill="white" transform="translate(59 320)"/>
</clipPath>
<clipPath id="clip2_604_719">
<rect width="32" height="32" fill="white" transform="translate(155 320)"/>
</clipPath>
<clipPath id="clip3_604_719">
<rect width="32" height="32" fill="white" transform="translate(251 320)"/>
</clipPath>
</defs>
</svg>
