<svg width="12" height="9" viewBox="0 0 12 9" fill="none" xmlns="http://www.w3.org/2000/svg">
<path id="Vector" d="M0.682787 9.89382e-07C0.876244 9.7247e-07 1.03829 0.0635309 1.16893 0.190589C1.30003 0.317207 1.36558 0.474266 1.36558 0.661766L1.36558 2.64706C1.36558 3.19853 1.56472 3.66728 1.96302 4.05331C2.36131 4.43934 2.84495 4.63235 3.41394 4.63235L9.69559 4.63235L7.69843 2.69669C7.57326 2.57537 7.51067 2.42647 7.51067 2.25C7.51067 2.07353 7.57895 1.91912 7.7155 1.78677C7.84068 1.66544 8 1.60478 8.19346 1.60478C8.38691 1.60478 8.54623 1.66544 8.67141 1.78677L11.8122 4.83088C11.8805 4.89706 11.9288 4.96875 11.957 5.04596C11.9857 5.12316 12 5.20588 12 5.29412C12 5.38235 11.9857 5.46507 11.957 5.54228C11.9288 5.61949 11.8805 5.69118 11.8122 5.75735L8.65434 8.81801C8.52916 8.93934 8.37553 9 8.19346 9C8.01138 9 7.85206 8.93382 7.71551 8.80147C7.59033 8.68015 7.52774 8.52574 7.52774 8.33824C7.52774 8.15074 7.59033 7.99632 7.71551 7.875L9.69559 5.95588L3.41394 5.95588C2.46942 5.95588 1.66418 5.63338 0.998235 4.98838C0.332745 4.34294 -4.75361e-07 3.5625 -5.55392e-07 2.64706L-7.28952e-07 0.661766C-7.45343e-07 0.474266 0.0655472 0.317207 0.196642 0.190589C0.327282 0.063531 0.48933 1.00629e-06 0.682787 9.89382e-07Z" fill="#7497FF"/>
</svg>
