<svg width="24" height="24" viewBox="0 0 24 24" fill="none" xmlns="http://www.w3.org/2000/svg">
<g id="Property 1=Fav_Active" clip-path="url(#clip0_255_1883)">
<path id="Vector" d="M12 4.35738C10.8292 3.20801 9.19843 2.5 7.5 2.5C4.14386 2.5 1.5 5.14386 1.5 8.5C1.5 10.5542 2.42838 12.3792 3.95662 14.2489C5.46631 16.0959 7.61247 18.0462 10.1491 20.3513L10.2137 20.41L10.2148 20.411L11.6648 21.721L12.0013 22.025L12.3366 21.7197L13.7859 20.4004L13.7866 20.3997L13.8246 20.3653C16.3727 18.0547 18.5283 16.1 20.0433 14.2478C21.5716 12.3793 22.5 10.5542 22.5 8.5C22.5 5.14386 19.8561 2.5 16.5 2.5C14.8016 2.5 13.1708 3.20801 12 4.35738Z" fill="#476DE0" stroke="white"/>
</g>
<defs>
<clipPath id="clip0_255_1883">
<rect width="24" height="24" fill="white"/>
</clipPath>
</defs>
</svg>
