<svg width="24" height="24" viewBox="0 0 24 24" fill="none" xmlns="http://www.w3.org/2000/svg">
<g id="Property 1=Fav_Default" clip-path="url(#clip0_255_1881)">
<path id="Vector" d="M16.95 2C15.036 2 13.199 2.88283 12 4.27793C10.801 2.88283 8.964 2 7.05 2C3.662 2 1 4.6376 1 7.99455C1 12.1144 4.74 15.4714 10.405 20.5722L12 22L13.595 20.5613C19.26 15.4714 23 12.1144 23 7.99455C23 4.6376 20.338 2 16.95 2ZM12.11 18.9482L12 19.0572L11.89 18.9482C6.654 14.2507 3.2 11.1444 3.2 7.99455C3.2 5.81471 4.85 4.17984 7.05 4.17984C8.744 4.17984 10.394 5.25886 10.977 6.75204H13.034C13.606 5.25886 15.256 4.17984 16.95 4.17984C19.15 4.17984 20.8 5.81471 20.8 7.99455C20.8 11.1444 17.346 14.2507 12.11 18.9482Z" fill="white"/>
</g>
<defs>
<clipPath id="clip0_255_1881">
<rect width="24" height="24" fill="white"/>
</clipPath>
</defs>
</svg>
