<svg width="33" height="32" viewBox="0 0 33 32" fill="none" xmlns="http://www.w3.org/2000/svg">
<g id="Contacts">
<path id="Vector" d="M9.0335 27.6667C8.73127 27.6667 8.47776 27.5634 8.27296 27.3568C8.06887 27.151 7.96683 26.8957 7.96683 26.5909C7.96683 26.2861 8.06887 26.0308 8.27296 25.825C8.47776 25.6184 8.73127 25.5152 9.0335 25.5152H23.9668C24.2691 25.5152 24.5222 25.6184 24.7263 25.825C24.9311 26.0308 25.0335 26.2861 25.0335 26.5909C25.0335 26.8957 24.9311 27.151 24.7263 27.3568C24.5222 27.5634 24.2691 27.6667 23.9668 27.6667H9.0335ZM9.0335 6.15152C8.73127 6.15152 8.47776 6.04824 8.27296 5.8417C8.06887 5.63587 7.96683 5.38056 7.96683 5.07576C7.96683 4.77096 8.06887 4.51529 8.27296 4.30874C8.47776 4.10291 8.73127 4 9.0335 4H23.9668C24.2691 4 24.5222 4.10291 24.7263 4.30874C24.9311 4.51529 25.0335 4.77096 25.0335 5.07576C25.0335 5.38056 24.9311 5.63587 24.7263 5.8417C24.5222 6.04824 24.2691 6.15152 23.9668 6.15152H9.0335ZM16.5002 16.9091C17.3891 16.9091 18.1446 16.5953 18.7668 15.9678C19.3891 15.3403 19.7002 14.5783 19.7002 13.6818C19.7002 12.7854 19.3891 12.0234 18.7668 11.3958C18.1446 10.7683 17.3891 10.4545 16.5002 10.4545C15.6113 10.4545 14.8557 10.7683 14.2335 11.3958C13.6113 12.0234 13.3002 12.7854 13.3002 13.6818C13.3002 14.5783 13.6113 15.3403 14.2335 15.9678C14.8557 16.5953 15.6113 16.9091 16.5002 16.9091ZM7.96683 24.4394C7.38016 24.4394 6.87812 24.2289 6.4607 23.8079C6.04256 23.3862 5.8335 22.8795 5.8335 22.2879V9.37879C5.8335 8.78712 6.04256 8.2808 6.4607 7.85982C6.87812 7.43812 7.38016 7.22727 7.96683 7.22727H25.0335C25.6202 7.22727 26.1226 7.43812 26.5407 7.85982C26.9581 8.2808 27.1668 8.78712 27.1668 9.37879V22.2879C27.1668 22.8795 26.9581 23.3862 26.5407 23.8079C26.1226 24.2289 25.6202 24.4394 25.0335 24.4394H7.96683ZM9.8335 22.2879H23.1668C22.3668 21.2838 21.3979 20.4949 20.2602 19.9212C19.1224 19.3475 17.8691 19.0606 16.5002 19.0606C15.1313 19.0606 13.8779 19.3475 12.7402 19.9212C11.6024 20.4949 10.6335 21.2838 9.8335 22.2879Z" fill="#999999"/>
</g>
</svg>
